<svg width="68" height="68" viewBox="0 0 68 68" fill="none" xmlns="http://www.w3.org/2000/svg">
<g id="Foodi" clip-path="url(#clip0_318_4765)">
<g id="Group">
<g id="Group_2">
<g id="Group_3">
<path id="Vector" d="M60.4265 5.71836C59.9496 5.24183 59.1766 5.24143 58.6995 5.71836L46.0387 18.3788C45.5616 18.8558 45.5616 19.6287 46.0385 20.1058C46.2771 20.3442 46.5894 20.4633 46.9021 20.4633C47.2144 20.4633 47.5271 20.3442 47.7656 20.1058L60.4265 7.44532C60.9033 6.96826 60.9033 6.19515 60.4265 5.71836Z" fill="white"/>
</g>
</g>
<g id="Group_4">
<g id="Group_5">
<path id="Vector_2" d="M63.8695 9.10707C63.3925 8.63041 62.6195 8.63041 62.1426 9.10707L49.4818 21.7678C49.005 22.2449 49.005 23.0178 49.4817 23.4948C49.7202 23.7332 50.0329 23.8523 50.3452 23.8523C50.6576 23.8523 50.9702 23.7332 51.2088 23.4948L63.8695 10.8339C64.3465 10.357 64.3465 9.58387 63.8695 9.10707Z" fill="white"/>
</g>
</g>
<g id="Group_6">
<g id="Group_7">
<path id="Vector_3" d="M51.9256 30.4868L67.6423 14.7701C68.1193 14.293 68.1193 13.52 67.6423 13.0431C67.1653 12.5666 66.3923 12.5662 65.9154 13.0431L50.1989 28.7599C48.2626 30.696 45.302 31.204 42.8318 30.0244C42.3404 29.7898 41.7536 29.9084 41.3922 30.3156L36.052 36.3324C36.0498 36.3347 36.0475 36.3367 36.0453 36.3391C36.0432 36.3415 36.0416 36.344 36.0395 36.3464L12.9581 62.3507C12.9523 62.3573 12.9464 62.3641 12.9407 62.3709C12.8646 62.4602 12.7928 62.5387 12.72 62.6116C11.196 64.1355 8.71637 64.1354 7.19301 62.6116C6.45484 61.8736 6.0483 60.892 6.0483 59.8481C6.0483 58.8042 6.45484 57.8227 7.19434 57.0832C7.26526 57.0119 7.34362 56.9403 7.4338 56.8635C7.4407 56.8578 7.44734 56.852 7.45398 56.8461L21.8838 44.0385C22.3882 43.5908 22.434 42.819 21.9865 42.3147C21.5387 41.8102 20.7668 41.7641 20.2627 42.212L5.84244 55.0112C5.70458 55.1287 5.58119 55.2425 5.46618 55.3577C4.26675 56.5571 3.60614 58.1518 3.60614 59.8481C3.60614 61.5442 4.26662 63.139 5.46605 64.3385C6.70426 65.5764 8.33028 66.1955 9.9567 66.1953C11.5825 66.1953 13.2089 65.5766 14.4462 64.3391C14.5634 64.2221 14.677 64.0986 14.7936 63.9621L32.3822 44.1457L49.9711 63.9624C50.0876 64.099 50.2011 64.2225 50.3176 64.3387C51.5556 65.5767 53.1817 66.1956 54.8079 66.1956C56.4342 66.1956 58.0605 65.5766 59.2985 64.3386C61.7742 61.8626 61.7742 57.8341 59.2992 55.3588C59.1823 55.2415 59.0587 55.1279 58.9223 55.0115L38.6828 37.0472L42.6427 32.5858C45.851 33.7225 49.4813 32.9307 51.9256 30.4868ZM57.3105 56.8463C57.3171 56.8521 57.3239 56.8579 57.3307 56.8637C57.42 56.9398 57.4985 57.0116 57.5714 57.0844C59.0952 58.6083 59.0952 61.0878 57.5716 62.6114C56.0476 64.1351 53.5681 64.1351 52.0437 62.6107C51.9715 62.5386 51.8994 62.46 51.8233 62.3706C51.8176 62.3638 51.8118 62.357 51.8059 62.3504L34.0148 42.3061L37.0613 38.8735L57.3105 56.8463Z" fill="white"/>
</g>
</g>
<g id="Group_8">
<g id="Group_9">
<path id="Vector_4" d="M56.7613 2.16191C56.2842 1.68525 55.5112 1.68525 55.0343 2.16191L39.3178 17.8788C36.8733 20.3231 36.0817 23.953 37.2184 27.162L32.3821 31.4548L27.7339 27.3291C30.1377 22.5994 29.2602 16.8567 25.4466 13.043C21.659 9.25543 17.272 6.59001 13.0936 5.538C8.73161 4.44004 4.99188 5.17304 2.5622 7.60257C0.132533 10.0321 -0.600592 13.7724 0.497635 18.1341C1.54978 22.3122 4.21506 26.6993 8.00287 30.4867C11.8164 34.3005 17.559 35.178 22.289 32.7741C22.289 32.7741 26.8345 37.8951 26.8921 37.9602C27.1334 38.2321 27.4688 38.3706 27.8059 38.3706C28.0942 38.3706 28.3835 38.2691 28.616 38.0627L39.4889 28.412C39.8959 28.0507 40.0145 27.4636 39.7801 26.9725C38.6002 24.502 39.1084 21.5416 41.0446 19.6056L56.7613 3.88887C57.2382 3.41181 57.2382 2.63884 56.7613 2.16191ZM27.908 35.426L23.463 30.4182C23.0694 29.9747 22.4136 29.8778 21.9089 30.1895C17.9938 32.6036 12.9855 32.0162 9.72943 28.76C6.24921 25.2799 3.8117 21.2946 2.86568 17.5377C1.9858 14.0425 2.49128 11.1273 4.28917 9.32954C6.08678 7.53152 9.00202 7.0263 12.4971 7.90632C16.254 8.85221 20.2395 11.2896 23.7195 14.7698C26.9755 18.0257 27.5631 23.0341 25.1488 26.9491C24.8375 27.4539 24.9341 28.1095 25.3775 28.5033L30.5423 33.0874L27.908 35.426Z" fill="white"/>
</g>
</g>
</g>
</g>
<defs>
<clipPath id="clip0_318_4765">
<rect width="68" height="68" fill="white"/>
</clipPath>
</defs>
</svg>
