<?xml version="1.0" encoding="utf-8"?>
<!-- Generator: Adobe Illustrator 27.5.0, SVG Export Plug-In . SVG Version: 6.00 Build 0)  -->
<svg version="1.1" xmlns="http://www.w3.org/2000/svg" xmlns:xlink="http://www.w3.org/1999/xlink" x="0px" y="0px"
	 viewBox="0 0 750 500" style="enable-background:new 0 0 750 500;" xml:space="preserve">
<g id="BACKGROUND">
	<rect style="fill:#F4F3EA;" width="750" height="500"/>
</g>
<g id="OBJECTS">
	<g>
		<g>
			<g>
				<g>
					<g>
						<path style="fill:#89BE89;" d="M540.913,92.106c0,0-15.465-7.423-25.08,5.121c-4.536,5.918-1.031,20.093,5.025,30.632
							c4.868,8.472,11.283,15.596,26.595,12.314l4.309-2.169c0,0,1.9,1.314,8.328,0.144c6.428-1.171,21.229-27.652,6.196-46.512
							C555.885,78.587,540.913,92.106,540.913,92.106z"/>
					</g>
					<g style="opacity:0.45;">
						<path style="fill:#679B67;" d="M566.287,91.636c15.034,18.86,0.232,45.341-6.196,46.512c-6.428,1.171-8.328-0.144-8.328-0.144
							l-4.309,2.169c-5.742,1.231-10.232,0.998-13.86-0.22c0,0,17.284-10.467,23.763-22.255
							C564.755,104.239,566.287,91.636,566.287,91.636z"/>
					</g>
					<g>
						<path style="fill:#87613E;" d="M541.178,95.8c0,0-8.806-14.118-6.922-17.172c1.883-3.054,5.891-1.886,5.891-1.886
							L541.178,95.8z"/>
					</g>
					<g>
						<path style="fill:#11937A;" d="M540.127,90.014c0,0-0.872-17.419,21.332-19.985c0,0-0.68,8.442-5.114,13.417
							C550.752,89.721,540.127,90.014,540.127,90.014z"/>
					</g>
					<g style="opacity:0.51;">
						<path style="fill:#0C7762;" d="M540.127,90.014c0,0,12.825-14.589,21.332-19.985c0,0-0.68,8.442-5.114,13.417
							C550.752,89.721,540.127,90.014,540.127,90.014z"/>
					</g>
					<g>
						<path style="fill:#89BE89;" d="M540.155,89.972c0,0,9.069-10.734,13.981-14.163c0,0-4.76,5.652-6.289,7.23
							C546.046,84.899,540.155,89.972,540.155,89.972z"/>
					</g>
					<g>
						<g>
							<path style="fill:#679B67;" d="M522.727,109.846c1.584,0,1.844-2.472,0.244-2.472
								C521.388,107.374,521.127,109.846,522.727,109.846L522.727,109.846z"/>
						</g>
					</g>
					<g>
						<g>
							<path style="fill:#679B67;" d="M538.749,107.637c1.584,0,1.844-2.472,0.244-2.472
								C537.409,105.164,537.148,107.637,538.749,107.637L538.749,107.637z"/>
						</g>
					</g>
					<g>
						<g>
							<path style="fill:#679B67;" d="M532.396,118.133c1.584,0,1.844-2.472,0.244-2.472
								C531.056,115.661,530.795,118.133,532.396,118.133L532.396,118.133z"/>
						</g>
					</g>
				</g>
				<g>
					<g>
						<path style="fill:#ECB52E;" d="M603.237,64.92c-2.489,0.151-5.909-2.91-9.607,1.037c-4.377,4.671-1.682,14.862-0.096,21.19
							c1.423,5.678,3.321,11.237,5.666,16.6c0.819,1.872,1.702,3.737,2.95,5.354c4.407,5.713,13.471,7.101,19.386,2.97
							c3.859,3.41,10.403,3.153,13.983-0.549c1.47-1.52,2.555-3.568,4.514-4.367c1.373-0.56,2.932-0.387,4.375-0.727
							c4.912-1.156,6.516-7.323,6.562-12.369c0.093-10.135-2.351-20.283-7.048-29.264c-0.873-1.669-1.895-3.373-3.529-4.31
							c-1.634-0.937-4.038-0.782-5.052,0.805c-1.309-3.243-4.27-5.766-7.679-6.545c-3.409-0.778-7.172,0.21-9.758,2.563
							c-2.837-1.773-6.644-1.862-9.561-0.223c-2.917,1.638-4.822,4.936-4.784,8.281L603.237,64.92z"/>
					</g>
					<g style="opacity:0.1;">
						<g>
							<path style="fill:#1F254F;" d="M646.793,70.879c1.602,5.664,4.23,17.294,4.176,23.18c-0.046,5.046-1.651,11.213-6.562,12.369
								c-1.444,0.34-3.002,0.167-4.375,0.727c-1.958,0.798-3.044,2.846-4.514,4.367c-3.58,3.702-10.124,3.959-13.983,0.549
								c-2.958,2.066-6.702,2.751-10.258,2.206c0,0,14.053-11.471,19.751-18.06C638.173,87.955,646.793,70.879,646.793,70.879z"/>
						</g>
					</g>
					<g>
						<path style="fill:#11937A;" d="M612.725,62.123c-0.503-1.545-0.313-3.219-0.118-4.831c0.339-2.804,0.684-5.632,1.59-8.308
							c0.905-2.676,2.425-5.223,4.713-6.88c0.341-0.247,0.724-0.482,1.146-0.485c0.368-0.003,0.713,0.171,1.031,0.356
							c1.752,1.021,3.217,2.527,4.188,4.306c0.195,0.357,0.37,0.796,0.176,1.153c-0.159,0.291-0.505,0.413-0.817,0.526
							c-4.068,1.486-6.865,5.882-6.487,10.196c0.029,0.329,0.078,0.668,0.254,0.947c0.644,1.02,2.235,0.506,3.374,0.903
							c1.599,0.558,1.836,2.93,0.817,4.282c-1.019,1.352-2.764,1.904-4.409,2.308c-0.887,0.218-1.846,0.41-2.691,0.064
							c-0.402-0.164-0.76-0.445-1.188-0.521c-1.247-0.22-2.239,1.366-3.5,1.244c-1.396-0.135-1.699-2.093-1.268-3.428
							C609.897,62.841,612.725,62.123,612.725,62.123z"/>
					</g>
					<g style="opacity:0.1;">
						<g>
							<path style="fill:#1F254F;" d="M606.62,74.087c-4.307,7.465-0.434,19.091,3.841,25.824c0.975,1.536,3.008,0.03,2.582-1.468
								c-0.685-2.41-1.849-4.601-2.705-6.953c-2.062-5.667-2.418-11.189-2.322-17.075C608.029,73.644,606.974,73.474,606.62,74.087
								L606.62,74.087z"/>
						</g>
					</g>
					<g style="opacity:0.1;">
						<g>
							<path style="fill:#1F254F;" d="M627.785,71.819c-0.092,5.089,2.696,10.465,3.698,15.471c0.618,3.084,1.008,6.132,1.029,9.273
								c0.016,2.499,2.412,1.243,3.194,0.306c1.556-1.866-0.629-8.711-1.052-10.635c-1.059-4.823-2.204-11.289-5.961-14.755
								C628.376,71.185,627.794,71.34,627.785,71.819L627.785,71.819z"/>
						</g>
					</g>
					<g style="opacity:0.1;">
						<g>
							<path style="fill:#1F254F;" d="M620.08,83.006c0.058,0,0.117,0.001,0.175,0.001c1.344,0.008,0.787-2.25-0.442-1.547
								c-0.028,0.016-0.056,0.032-0.084,0.048C619.061,81.89,619.26,83.001,620.08,83.006L620.08,83.006z"/>
						</g>
					</g>
					<g style="opacity:0.1;">
						<g>
							<path style="fill:#1F254F;" d="M612.967,87.803c1.399,0,1.16-2.166-0.231-2.166
								C611.337,85.638,611.575,87.803,612.967,87.803L612.967,87.803z"/>
						</g>
					</g>
					<g style="opacity:0.1;">
						<g>
							<path style="fill:#1F254F;" d="M616.182,73.857c-0.039,0.014-0.078,0.028-0.118,0.042c-0.604,0.213-1.036,0.766-0.874,1.434
								c0.158,0.649,0.802,0.995,1.434,0.874c0.052-0.01,0.103-0.02,0.154-0.03C618.304,75.885,617.635,73.345,616.182,73.857
								L616.182,73.857z"/>
						</g>
					</g>
					<g style="opacity:0.1;">
						<g>
							<path style="fill:#1F254F;" d="M600.82,72.844c1.292,0,1.309-2.01,0.011-2.01C599.538,70.834,599.522,72.844,600.82,72.844
								L600.82,72.844z"/>
						</g>
					</g>
				</g>
				<g>
					<g>
						<path style="fill:#19A58A;" d="M680.315,201.325c0.579,0.683,1.311,1.219,2.138,1.563c3.452,1.437,7.079,2.703,10.746,2.184
							c4.119-0.583,8.082-4.375,7.244-8.45c-0.301-1.465-1.134-3.118-0.239-4.316c0.474-0.635,1.289-0.885,2.022-1.187
							c4.318-1.779,6.944-6.379,7.657-10.993s-0.161-9.31-1.023-13.9c-0.219-1.164-0.436-2.367-0.182-3.524
							c0.471-2.137,2.387-3.58,3.855-5.203c3.464-3.831,4.672-9.566,3.046-14.468c-1.626-4.902-7.116-10.015-12.183-11.017
							c3.185-6.529,6.312-18.268-4.303-21.614c-5.466-1.723-11.491,6.447-13.034,9.354c-3.798-4.65-9.789-5.834-13.813-1.251
							c-4.024,4.583-2.939,10.221-5.565,15.726c-0.407,0.852-0.859,1.729-1.622,2.286c-1.33,0.97-3.151,0.694-4.788,0.87
							c-4.595,0.494-7.973,4.863-8.977,9.374c-1.004,4.511-0.194,9.197,0.355,13.785c0.12,1,0.221,2.049-0.154,2.984
							c-0.476,1.189-1.613,1.95-2.566,2.806c-6.813,6.111-4.097,18.18,2.992,23.968c7.089,5.789,16.743,7.014,25.841,8.015
							L680.315,201.325z"/>
					</g>
					<g style="opacity:0.58;">
						<g>
							<path style="fill:#147F6B;" d="M709.883,180.125c-0.714,4.615-3.34,9.215-7.657,10.993c-0.733,0.302-1.548,0.552-2.022,1.187
								c-0.895,1.198-0.063,2.851,0.239,4.316c0.838,4.074-3.125,7.867-7.244,8.45c-3.667,0.52-7.294-0.747-10.746-2.184
								c-0.826-0.344-1.559-0.881-2.138-1.563l-2.552-3.009c-6.163-0.678-12.581-1.459-18.284-3.692c0,0,19.305-0.595,27.576-3.184
								C699.278,187.613,709.883,180.125,709.883,180.125z"/>
						</g>
					</g>
					<g>
						<path style="fill:#BEEABE;" d="M666.55,234.345l13.05-61.475c4.633-4.967,9.514-11.274,9.514-11.274
							c-5.471,2.639-5.981,3.457-8.242,5.282l7.557-35.596c-1.768,3.01-4.376,9.709-7.351,18.274l-3.412-4.524
							c0,0,1.725,6.325,1.652,9.678c-2.753,8.189-5.722,17.575-8.583,26.9c-2.109-4.386-4.276-8.036-4.276-8.036l3.146,11.735
							c-6.972,22.912-13.006,44.404-13.157,45.443L666.55,234.345z"/>
					</g>
					<g style="opacity:0.58;">
						<g>
							<path style="fill:#147F6B;" d="M700.143,154.447c1.584,0,1.844-2.472,0.244-2.472
								C698.803,151.975,698.543,154.447,700.143,154.447L700.143,154.447z"/>
						</g>
					</g>
					<g style="opacity:0.58;">
						<g>
							<path style="fill:#147F6B;" d="M696.954,171.588c1.584,0,1.844-2.472,0.244-2.472
								C695.614,169.116,695.354,171.588,696.954,171.588L696.954,171.588z"/>
						</g>
					</g>
					<g style="opacity:0.58;">
						<g>
							<path style="fill:#147F6B;" d="M666.033,158.25c1.584,0,1.844-2.472,0.244-2.472
								C664.693,155.778,664.433,158.25,666.033,158.25L666.033,158.25z"/>
						</g>
					</g>
					<g style="opacity:0.58;">
						<g>
							<path style="fill:#147F6B;" d="M657.49,178.365c1.584,0,1.845-2.472,0.244-2.472
								C656.15,175.893,655.89,178.365,657.49,178.365L657.49,178.365z"/>
						</g>
					</g>
					<g style="opacity:0.58;">
						<g>
							<path style="fill:#147F6B;" d="M680.61,128.935c1.584,0,1.844-2.472,0.244-2.472
								C679.271,126.463,679.01,128.935,680.61,128.935L680.61,128.935z"/>
						</g>
					</g>
				</g>
				<g>
					<g>
						<path style="fill:#11937A;" d="M679.346,248.063c3.753,3.7,28.762,60.8-18.85,80.344
							c-52.45,21.53-78.897-13.474-82.165-36.262L679.346,248.063z"/>
					</g>
					<g>
						<path style="fill:#FFFFFF;" d="M674.755,249.987c3.353,3.305,25.661,54.954-16.552,73.176
							c-47.239,20.391-71.317-13.031-74.236-33.389L674.755,249.987z"/>
					</g>
					<g>
						<path style="fill:#C64B63;" d="M673.587,250.492c3.25,3.204,25.022,53.93-15.899,71.594
							c-45.794,19.768-69.196-13.458-72.026-33.193L673.587,250.492z"/>
					</g>
					<g>
						<path style="fill:#A5425E;" d="M673.587,250.492c3.25,3.204,25.022,53.93-15.899,71.594
							c-12.821,5.534-23.886,6.915-33.237,5.601c0,0,34.291-10.068,43.482-23.299C679.79,287.317,673.587,250.492,673.587,250.492z"
							/>
					</g>
					<g style="opacity:0.75;">
						<path style="fill:#1F254F;" d="M642.029,272.129c0,0,0.941,0.899,1.952,1.442c1.011,0.543,2.071,0.473,2.375-0.694
							c0.267-1.028-0.788-1.425-1.974-1.329C643.194,271.644,642.029,272.129,642.029,272.129z"/>
					</g>
					<g style="opacity:0.75;">
						<path style="fill:#1F254F;" d="M661.691,288.691c0,0,0.51,1.197,1.225,2.095c0.715,0.898,1.717,1.251,2.456,0.298
							c0.651-0.839-0.162-1.62-1.29-2C662.953,288.705,661.691,288.691,661.691,288.691z"/>
					</g>
					<g style="opacity:0.75;">
						<path style="fill:#1F254F;" d="M652.772,303.638c0,0-0.05,1.3,0.213,2.417c0.263,1.117,1.019,1.865,2.093,1.318
							c0.947-0.481,0.545-1.534-0.313-2.359C653.907,304.19,652.772,303.638,652.772,303.638z"/>
					</g>
					<g style="opacity:0.75;">
						<path style="fill:#1F254F;" d="M662.301,273.961c0,0,0.651,1.127,1.47,1.931s1.856,1.034,2.474-0.001
							c0.544-0.912-0.357-1.589-1.523-1.829C663.556,273.822,662.301,273.961,662.301,273.961z"/>
					</g>
					<g style="opacity:0.75;">
						<path style="fill:#1F254F;" d="M638.415,307.428c0,0-0.633,1.137-0.904,2.252c-0.271,1.115,0.064,2.124,1.27,2.123
							c1.062-0.001,1.181-1.121,0.789-2.245C639.177,308.434,638.415,307.428,638.415,307.428z"/>
					</g>
					<g style="opacity:0.75;">
						<path style="fill:#1F254F;" d="M648.257,287.025c0,0,0.51,1.197,1.225,2.095c0.715,0.898,1.717,1.251,2.456,0.298
							c0.651-0.839-0.162-1.62-1.29-2C649.519,287.039,648.257,287.025,648.257,287.025z"/>
					</g>
					<g style="opacity:0.75;">
						<path style="fill:#1F254F;" d="M633.556,292.1c0,0-0.633,1.137-0.904,2.252c-0.271,1.115,0.064,2.124,1.27,2.123
							c1.062,0,1.181-1.121,0.789-2.245C634.318,293.106,633.556,292.1,633.556,292.1z"/>
					</g>
					<g style="opacity:0.75;">
						<path style="fill:#1F254F;" d="M614.807,299.402c0,0-1.188,0.53-2.074,1.26c-0.885,0.73-1.222,1.738-0.256,2.461
							c0.85,0.636,1.617-0.19,1.977-1.324C614.815,300.664,614.807,299.402,614.807,299.402z"/>
					</g>
					<g style="opacity:0.75;">
						<path style="fill:#1F254F;" d="M624.054,281.984c0,0-1.176,0.557-2.044,1.307c-0.869,0.75-1.182,1.766-0.2,2.466
							c0.865,0.617,1.612-0.226,1.947-1.369C624.09,283.246,624.054,281.984,624.054,281.984z"/>
					</g>
				</g>
				<g>
					<g>
						<g>
							<path style="fill:#468E80;" d="M599.81,197.26c0.128-6.617-0.276-13.28-1.207-19.926c-0.442-3.151-1.003-6.326-0.749-9.442
								c0.113-1.392,0.348-11.253,5.695-8.334c0.624,0.341,0.771,1.076,0.919,1.687c1.903,7.849,2.004,15.187,0.914,22.978
								c-0.131,0.935-1.557,12.979-2.586,12.993C602.795,197.217,599.81,197.26,599.81,197.26z"/>
						</g>
						<g style="opacity:0.45;">
							<g>
								<path style="fill:#337266;" d="M601.301,197.238c0.747-0.011,1.495-0.022,1.495-0.022
									c1.029-0.015,2.455-12.059,2.586-12.993c1.09-7.791,0.989-15.129-0.914-22.978c-0.148-0.611-0.295-1.347-0.919-1.687
									c-1.002-0.547-1.825-0.645-2.501-0.434L601.301,197.238z"/>
							</g>
						</g>
						<g>
							<path style="fill:#468E80;" d="M605.332,199.221c7.858-8.296,14.951-17.153,21.2-26.473c0.558-0.833,1.127-1.737,1.01-2.738
								c-0.117-1.001-1.255-2.04-2.351-1.803c-0.476,0.103-0.833,0.413-1.166,0.713c-10.116,9.117-18.529,19.658-24.876,31.167
								L605.332,199.221z"/>
						</g>
						<g style="opacity:0.45;">
							<g>
								<path style="fill:#337266;" d="M626.768,168.673c0.418,0.354,0.717,0.85,0.774,1.337c0.117,1.001-0.452,1.905-1.01,2.738
									c-6.249,9.32-13.341,18.177-21.2,26.473l-3.284,0.459L626.768,168.673z"/>
							</g>
						</g>
						<g>
							<path style="fill:#468E80;" d="M599.326,198.088c4.597-14.684,9.272-29.535,17.955-42.511
								c0.784-1.171,1.651-2.369,3.025-3.016c1.374-0.647,3.402-0.542,4.453,0.603c1.091,1.188,0.69,2.83,0.189,4.184
								c-2.168,5.856-5.094,11.453-8.711,16.661l-14.043,24.625L599.326,198.088z"/>
						</g>
						<g style="opacity:0.45;">
							<g>
								<path style="fill:#337266;" d="M623.341,152.324c0.548,0.157,1.045,0.433,1.419,0.84c1.091,1.188,0.69,2.83,0.189,4.184
									c-2.168,5.856-5.094,11.453-8.711,16.661l-14.043,24.625l-1.525-0.29L623.341,152.324z"/>
							</g>
						</g>
					</g>
					<g>
						<path style="fill:#A7467A;" d="M624.952,204.38c3.556,3.402,6.103,7.974,5.696,13.025c-0.489,6.076-4.652,11.207-8.913,15.234
							c-5.248,4.961-15.495,11.413-23.424,9.576c-2.532-0.587-4.886-1.747-7.266-2.792c-4.856-2.132-6.122-3.624-10.598-6.469
							c-8.979-5.708-12.452-16.005-5.993-25.18c2.919-4.147,7.206-7.163,11.751-9.41c2.965-1.466,7.714-2.754,10.2-4.476
							c1.632-1.131,2.263-3.579,3.018-5.936c0.645,2.048,1.962,4.087,3.054,5.982c1.216-1.253,2.664-3.017,3.88-4.27
							c0.851,2.347,1.093,5.336,1.829,5.552c0.96,0.282,2.11-2.375,4.179-4.275c0.988,1.922,1.447,4.113,1.314,6.269
							C613.678,197.21,620.607,200.222,624.952,204.38z"/>
					</g>
					<g style="opacity:0.28;">
						<g>
							<path style="fill:#1F254F;" d="M624.952,204.38c3.556,3.402,6.103,7.974,5.696,13.025
								c-0.489,6.076-4.652,11.207-8.913,15.234c-5.248,4.961-15.495,11.413-23.424,9.576c-2.532-0.587-4.886-1.747-7.266-2.792
								c-2.943-1.292-4.567-2.349-6.386-3.614c0,0,14.875-0.107,21.401-4.158C618.802,223.742,624.952,204.38,624.952,204.38z"/>
						</g>
					</g>
					<g>
						<path style="fill:#D3B363;" d="M592.087,238.226"/>
					</g>
					<g>
						<path style="fill:#8E3C6B;" d="M583.859,235.019c-0.087,0-0.173-0.038-0.231-0.11c-0.122-0.151-12.066-15.285,0.245-30.213
							c2.003-2.43,8.031-6.946,11.433-9.14c0.138-0.088,0.322-0.05,0.411,0.089c0.09,0.139,0.05,0.323-0.089,0.412
							c-3.369,2.173-9.33,6.634-11.296,9.018c-12.005,14.558-0.36,29.312-0.241,29.459c0.103,0.128,0.084,0.316-0.044,0.419
							C583.991,234.998,583.925,235.019,583.859,235.019z"/>
					</g>
					<g>
						<path style="fill:#8E3C6B;" d="M596.545,241.729c-0.082,0-0.163-0.033-0.222-0.099c-0.092-0.102-0.229-0.223-0.398-0.374
							c-1.694-1.505-6.196-5.505-6.221-21.381c-0.014-8.65,3.147-16.764,9.142-23.463c0.136-0.152,0.23-0.257,0.275-0.315
							c0.1-0.131,0.286-0.155,0.418-0.055c0.131,0.1,0.155,0.288,0.055,0.418c-0.049,0.064-0.153,0.181-0.304,0.349
							c-5.894,6.588-9.004,14.563-8.99,23.064c0.024,15.609,4.381,19.48,6.021,20.937c0.191,0.17,0.343,0.306,0.446,0.422
							c0.11,0.123,0.1,0.311-0.023,0.421C596.686,241.704,596.616,241.729,596.545,241.729z"/>
					</g>
					<g>
						<path style="fill:#8E3C6B;" d="M600.265,242.298c-0.024,0-0.05-0.003-0.075-0.01c-0.159-0.042-0.255-0.204-0.213-0.363
							c1.297-4.964,4.553-31.509,4.202-44.405c-0.005-0.165,0.125-0.302,0.29-0.306c0.181-0.002,0.302,0.125,0.306,0.29
							c0.352,12.939-2.919,39.587-4.222,44.572C600.518,242.21,600.398,242.298,600.265,242.298z"/>
					</g>
					<g>
						<path style="fill:#8E3C6B;" d="M606.969,241.375c-0.067,0-0.136-0.022-0.191-0.069c-0.126-0.105-0.143-0.294-0.037-0.42
							c10.84-12.956,5.778-38.467,2.838-42.522c-0.097-0.133-0.067-0.319,0.066-0.416c0.133-0.097,0.318-0.067,0.416,0.066
							c2.994,4.127,8.155,30.084-2.863,43.254C607.139,241.339,607.054,241.375,606.969,241.375z"/>
					</g>
					<g>
						<path style="fill:#8E3C6B;" d="M617.207,236.379c-0.05,0-0.1-0.012-0.146-0.038c-0.144-0.081-0.195-0.262-0.114-0.406
							c8.976-16.07,3.112-30.965-1.241-36.595c-0.102-0.13-0.077-0.317,0.053-0.418c0.132-0.1,0.317-0.076,0.418,0.054
							c4.438,5.738,10.419,20.908,1.29,37.251C617.413,236.324,617.311,236.379,617.207,236.379z"/>
					</g>
				</g>
				<g>
					<g>
						<path style="fill:#FF8066;" d="M484.918,207.159c-2.115,3.976,1.992,8.897,5.044,12.566
							c12.967,15.589,27.355,30.069,42.913,43.19c2.527,2.131,5.168,4.274,8.28,5.334c0.592,0.202,1.363,0.311,1.695-0.178
							c0.206-0.303,0.143-0.717,0.07-1.088c-1.436-7.269-4.326-14.341-8.454-20.688c-3.141-4.829-6.967-9.21-10.777-13.571
							c-7.639-8.743-15.279-17.486-22.918-26.229c-1.701-1.947-3.521-3.977-5.943-4.868
							C490.973,200.208,486.238,204.677,484.918,207.159z"/>
					</g>
					<g style="opacity:0.59;">
						<g>
							<path style="fill:#D36054;" d="M491.839,201.543c-3.02,0.775-5.931,3.755-6.921,5.616c-2.115,3.976,1.992,8.897,5.044,12.566
								c12.967,15.589,27.355,30.069,42.913,43.19c0,0-28.334-33.508-32.802-39.437
								C490.326,210.546,491.839,201.543,491.839,201.543z"/>
						</g>
					</g>
					<g>
						<defs>
							<path id="SVGID_1_" d="M484.918,207.159c-2.115,3.976,1.992,8.897,5.044,12.566c12.967,15.589,27.355,30.069,42.913,43.19
								c2.527,2.131,5.168,4.274,8.28,5.334c0.592,0.202,1.363,0.311,1.695-0.178c0.206-0.303,0.143-0.717,0.07-1.088
								c-1.436-7.269-4.326-14.341-8.454-20.688c-3.141-4.829-6.967-9.21-10.777-13.571c-7.639-8.743-15.279-17.486-22.918-26.229
								c-1.701-1.947-3.521-3.977-5.943-4.868C490.973,200.208,486.238,204.677,484.918,207.159z"/>
						</defs>
						<clipPath id="SVGID_00000011002451942708464090000002115310053816235160_">
							<use xlink:href="#SVGID_1_"  style="overflow:visible;"/>
						</clipPath>
						<g style="clip-path:url(#SVGID_00000011002451942708464090000002115310053816235160_);">
							<path style="fill:#E26954;" d="M510.913,213.114c0,0-2.791,4.53-8.665,7.536C502.248,220.65,505.65,215.999,510.913,213.114z
								"/>
						</g>
						<g style="clip-path:url(#SVGID_00000011002451942708464090000002115310053816235160_);">
							<path style="fill:#E26954;" d="M515.369,219.415c0,0-3.047,4.429-9.016,7.128
								C506.353,226.543,510.007,222.027,515.369,219.415z"/>
						</g>
						<g style="clip-path:url(#SVGID_00000011002451942708464090000002115310053816235160_);">
							<path style="fill:#E26954;" d="M520.343,225.083c0,0-2.912,4.485-8.834,7.348
								C511.51,232.431,515.032,227.841,520.343,225.083z"/>
						</g>
					</g>
					<g>
						<path style="fill:#11937A;" d="M471.765,182.177c0.954,1.082,2.001,2.373,3.09,3.781c-0.213-0.39-0.39-0.789-0.457-1.202
							c-0.112-0.691,0.164-1.426,0.806-1.571c0.392-0.089,0.84,0.051,1.254,0.219c3.643,1.469,6.346,4.99,8.136,8.517
							c1.894,3.734,3.671,12.32,4.116,13.26l-1.255,1.034c-3.758-2.397-7.514-4.797-11.267-7.204
							c-1.302-0.835-2.648-1.665-3.987-2.525c-4.167-2.675-8.272-5.638-10.806-9.947c-0.555-0.943-1.01-2.146-0.45-2.882
							c0.393-0.517,1.162-0.605,1.878-0.543c1.932,0.167,3.821,1.173,5.497,2.483c-1.315-1.929-2.361-3.985-2.926-6.209
							c-0.093-0.366-0.168-0.77,0.009-1.053C466.606,176.414,470.917,181.216,471.765,182.177z"/>
					</g>
					<g style="opacity:0.58;">
						<g>
							<path style="fill:#78A878;" d="M462.823,183.113c-0.716-0.062-1.485,0.026-1.878,0.543c-0.56,0.736-0.105,1.939,0.45,2.882
								c2.534,4.309,6.638,7.272,10.806,9.947c1.339,0.86,2.685,1.69,3.987,2.525c3.752,2.407,7.509,4.807,11.267,7.204l0.696-0.573
								c0,0-7.345-8.919-11.514-12.828C470.118,186.704,462.823,183.113,462.823,183.113z"/>
						</g>
					</g>
				</g>
				<g>
					<g>
						<path style="fill:#FF8066;" d="M524.491,196.431c-3.461,2.359-1.389,7.831,0.147,11.906
							c6.525,17.316,14.801,34.29,24.683,50.627c1.605,2.653,3.314,5.36,5.866,7.383c0.486,0.385,1.174,0.764,1.668,0.501
							c0.306-0.163,0.399-0.515,0.466-0.839c1.316-6.325,1.185-13.046-0.383-19.659c-1.193-5.032-3.199-9.967-5.197-14.881
							c-4.006-9.851-8.013-19.702-12.019-29.554c-0.892-2.193-1.865-4.498-3.828-6.126
							C532.771,193.201,526.652,194.959,524.491,196.431z"/>
					</g>
					<g style="opacity:0.59;">
						<g>
							<path style="fill:#D36054;" d="M533.098,194.591c-3.14-0.529-6.987,0.736-8.607,1.84c-3.461,2.359-1.389,7.831,0.147,11.906
								c6.525,17.316,14.801,34.29,24.683,50.627c0,0-14.462-37.396-16.506-43.806C528.358,201.177,533.098,194.591,533.098,194.591
								z"/>
						</g>
					</g>
					<g>
						<defs>
							<path id="SVGID_00000107568157652816223930000013759506490484651908_" d="M524.491,196.431
								c-3.461,2.359-1.389,7.831,0.147,11.906c6.525,17.316,14.801,34.29,24.683,50.627c1.605,2.653,3.314,5.36,5.866,7.383
								c0.486,0.385,1.174,0.764,1.668,0.501c0.306-0.163,0.399-0.515,0.466-0.839c1.316-6.325,1.185-13.046-0.383-19.659
								c-1.193-5.032-3.199-9.967-5.197-14.881c-4.006-9.851-8.013-19.702-12.019-29.554c-0.892-2.193-1.865-4.498-3.828-6.126
								C532.771,193.201,526.652,194.959,524.491,196.431z"/>
						</defs>
						<clipPath id="SVGID_00000083068261066916618000000009688801196268908439_">
							<use xlink:href="#SVGID_00000107568157652816223930000013759506490484651908_"  style="overflow:visible;"/>
						</clipPath>
						<g style="clip-path:url(#SVGID_00000083068261066916618000000009688801196268908439_);">
							<path style="fill:#E26954;" d="M546.873,211.03c0,0-4.304,2.543-10.962,2.706
								C535.912,213.735,540.838,211.327,546.873,211.03z"/>
						</g>
						<g style="clip-path:url(#SVGID_00000083068261066916618000000009688801196268908439_);">
							<path style="fill:#E26954;" d="M548.769,217.731c0,0-4.508,2.366-11.144,2.248
								C537.625,219.979,542.74,217.774,548.769,217.731z"/>
						</g>
						<g style="clip-path:url(#SVGID_00000083068261066916618000000009688801196268908439_);">
							<path style="fill:#E26954;" d="M551.387,224.125c0,0-4.402,2.461-11.052,2.492
								C540.335,226.617,545.352,224.303,551.387,224.125z"/>
						</g>
					</g>
					<g>
						<path style="fill:#11937A;" d="M521.245,171.575c0.505,1.222,1.019,2.646,1.53,4.179c-0.057-0.391-0.078-0.776,0.01-1.129
							c0.148-0.592,0.679-1.072,1.339-0.944c0.403,0.078,0.775,0.36,1.106,0.65c2.904,2.55,4.164,6.375,4.559,9.86
							c0.417,3.688-1.061,11.19-0.985,12.106l-1.566,0.346c-2.671-3.332-5.339-6.665-8.001-10.003
							c-0.924-1.158-1.89-2.329-2.84-3.521c-2.955-3.708-5.746-7.622-6.557-12.01c-0.177-0.96-0.166-2.089,0.634-2.462
							c0.562-0.262,1.321-0.04,1.975,0.281c1.765,0.866,3.18,2.382,4.283,4.06c-0.534-2.033-0.766-4.065-0.482-6.047
							c0.047-0.326,0.124-0.676,0.396-0.834C518.487,165.035,520.796,170.489,521.245,171.575z"/>
					</g>
					<g style="opacity:0.58;">
						<g>
							<path style="fill:#78A878;" d="M512.448,168.927c-0.654-0.321-1.413-0.543-1.975-0.281c-0.8,0.373-0.812,1.502-0.634,2.462
								c0.811,4.388,3.601,8.302,6.557,12.01c0.95,1.192,1.917,2.362,2.84,3.521c2.662,3.338,5.33,6.672,8.001,10.003l0.868-0.192
								c0,0-3.663-9.88-6.167-14.569C518.023,174.55,512.448,168.927,512.448,168.927z"/>
						</g>
					</g>
				</g>
			</g>
			<g>
				<g>
					<g>
						<polygon style="fill:#ECB52E;" points="36.294,120.357 44.331,116.837 76.534,162.729 69.105,166.487 						"/>
						<path style="fill:#E3AF35;" d="M69.106,167.07c-0.184,0-0.363-0.086-0.476-0.245l-32.812-46.13
							c-0.102-0.143-0.134-0.324-0.087-0.493c0.047-0.17,0.167-0.309,0.328-0.379l8.037-3.521c0.254-0.112,0.551-0.028,0.711,0.199
							l32.203,45.892c0.097,0.139,0.129,0.313,0.088,0.477c-0.042,0.164-0.152,0.302-0.303,0.379l-7.429,3.759
							C69.285,167.05,69.195,167.07,69.106,167.07z M37.185,120.604L69.29,165.74l6.38-3.228l-31.542-44.95L37.185,120.604z"/>
					</g>
					<g>
						<polygon style="fill:#ECB52E;" points="54.907,112.204 46.45,123.975 76.534,162.729 81.373,161.113 						"/>
						<path style="fill:#E3AF35;" d="M76.534,163.311c-0.177,0-0.348-0.08-0.46-0.225l-30.084-38.753
							c-0.159-0.204-0.164-0.488-0.013-0.698l8.457-11.771c0.117-0.163,0.304-0.242,0.511-0.242c0.2,0.013,0.38,0.128,0.476,0.305
							l26.466,48.909c0.082,0.151,0.093,0.331,0.03,0.492c-0.063,0.16-0.194,0.284-0.358,0.339l-4.839,1.615
							C76.658,163.302,76.596,163.311,76.534,163.311z M47.177,123.962l29.564,38.083l3.789-1.265l-25.693-47.479L47.177,123.962z"
							/>
					</g>
					<g>
						<polygon style="fill:#ECB52E;" points="65.591,113.574 56.973,120.374 76.534,162.729 84.757,159.631 						"/>
						<path style="fill:#E3AF35;" d="M76.534,163.312c-0.221,0-0.432-0.127-0.529-0.339l-19.561-42.354
							c-0.113-0.245-0.043-0.535,0.168-0.703l8.617-6.8c0.144-0.113,0.332-0.152,0.508-0.106c0.177,0.046,0.322,0.172,0.392,0.34
							l19.167,46.057c0.061,0.146,0.06,0.311-0.003,0.456c-0.063,0.145-0.182,0.258-0.33,0.314l-8.223,3.098
							C76.673,163.3,76.603,163.312,76.534,163.312z M57.695,120.547l19.141,41.444l7.151-2.694l-18.639-44.789L57.695,120.547z"/>
					</g>
					<g>
						<polygon style="fill:#ECB52E;" points="61.965,107.6 70.768,101.223 91.977,159.998 82.432,164.683 						"/>
						<path style="fill:#E3AF35;" d="M82.432,165.265c-0.074,0-0.149-0.014-0.219-0.042c-0.154-0.063-0.273-0.188-0.33-0.344
							l-20.467-57.083c-0.088-0.244-0.003-0.517,0.207-0.669l8.803-6.377c0.149-0.108,0.338-0.14,0.514-0.085
							c0.175,0.054,0.314,0.187,0.376,0.359L92.525,159.8c0.101,0.279-0.024,0.59-0.292,0.721l-9.544,4.685
							C82.609,165.245,82.52,165.265,82.432,165.265z M62.662,107.815l20.099,56.057l8.49-4.167l-20.769-57.555L62.662,107.815z"/>
					</g>
					<g>
						<polygon style="fill:#ECB52E;" points="72.387,114.126 82.858,111.557 95.252,152.513 84.967,155.505 						"/>
						<path style="fill:#E3AF35;" d="M84.966,156.089c-0.25,0-0.481-0.163-0.558-0.414l-12.58-41.379
							c-0.046-0.153-0.028-0.319,0.051-0.458c0.079-0.139,0.212-0.24,0.368-0.278l10.471-2.57c0.302-0.073,0.608,0.1,0.697,0.397
							l12.395,40.956c0.045,0.149,0.029,0.31-0.045,0.447c-0.074,0.137-0.2,0.239-0.35,0.282l-10.285,2.993
							C85.075,156.081,85.021,156.089,84.966,156.089z M73.124,114.546l12.233,40.239l9.166-2.667L82.46,112.255L73.124,114.546z"/>
					</g>
					<g>
						<polygon style="fill:#ECB52E;" points="90.815,105.55 98.556,148.544 90.2,150.188 82.169,108.833 						"/>
						<path style="fill:#E3AF35;" d="M90.2,150.771c-0.115,0-0.229-0.034-0.326-0.099c-0.128-0.086-0.217-0.221-0.247-0.373
							l-8.031-41.354c-0.054-0.279,0.1-0.556,0.365-0.656l8.646-3.283c0.163-0.062,0.344-0.048,0.494,0.038
							c0.151,0.085,0.256,0.233,0.287,0.404l7.741,42.994c0.057,0.313-0.149,0.614-0.461,0.676l-8.355,1.644
							C90.275,150.767,90.238,150.771,90.2,150.771z M82.835,109.204l7.826,40.299l7.219-1.42l-7.515-41.738L82.835,109.204z"/>
					</g>
					<g>
						<polygon style="fill:#ECB52E;" points="33.707,130.566 54.188,158.904 62.092,153.929 43.622,126.727 						"/>
						<path style="fill:#E3AF35;" d="M54.188,159.487c-0.182,0-0.359-0.084-0.473-0.241l-20.48-28.338
							c-0.106-0.146-0.138-0.334-0.086-0.507c0.051-0.173,0.18-0.313,0.349-0.378l9.915-3.839c0.254-0.098,0.54-0.008,0.693,0.216
							l18.47,27.202c0.089,0.131,0.121,0.293,0.088,0.447c-0.032,0.155-0.126,0.289-0.26,0.374l-7.904,4.975
							C54.402,159.458,54.295,159.487,54.188,159.487z M34.623,130.837L54.34,158.12l6.93-4.362L43.4,127.438L34.623,130.837z"/>
					</g>
					<g>
						<path style="fill:#C64B63;" d="M42.654,149.839l10.761-4.209c0,0,9.95,15.809,25.549,9.984
							c15.599-5.825,9.191-26.21,9.191-26.21l11.607-4.58l14.594,50.581l-4.891,2.647c0,0-10.869-1.793-20.599,2.469
							c-9.729,4.262-12.953,10.716-12.953,10.716l-7.006,3.573L42.654,149.839z"/>
					</g>
					<g style="opacity:0.68;">
						<path style="fill:#AA3F59;" d="M102.141,133.07l12.215,42.334l-4.891,2.647c0,0-10.869-1.793-20.599,2.469
							c-9.729,4.262-12.953,10.716-12.953,10.716l-7.006,3.573l-7.431-12.729c0,0,17.957-7.907,25.739-17.321
							C94.996,155.345,102.141,133.07,102.141,133.07z"/>
					</g>
					<g>
						<path style="fill:#2D3962;" d="M95.352,163.536c1.315,3.324-2.719,8.036-9.011,10.526c-6.292,2.489-12.458,1.813-13.773-1.511
							c-1.315-3.324,2.719-8.036,9.011-10.526C87.87,159.536,94.036,160.212,95.352,163.536z"/>
					</g>
				</g>
				<g>
					<g>
						<g>
							<path style="fill:#FFCEAB;" d="M104.1,287.167c-19.403-2.594-36.337,2.235-38.317,17.042
								c-1.98,14.807,11.559,25.116,30.962,27.71c19.403,2.594,37.322-3.509,39.301-18.316
								C138.026,298.795,123.503,289.761,104.1,287.167z M99.793,310.831c-7.32-0.979-12.919-4.287-12.504-7.388
								c0.415-3.102,6.685-4.823,14.006-3.844c7.321,0.979,12.919,4.287,12.504,7.389
								C113.384,310.088,107.114,311.809,99.793,310.831z"/>
						</g>
						<g>
							<defs>
								<path id="SVGID_00000119085479308915106380000006338566878080059577_" d="M104.1,287.167
									c-19.403-2.594-36.337,2.235-38.317,17.042c-1.98,14.807,11.559,25.116,30.962,27.71
									c19.403,2.594,37.322-3.509,39.301-18.316C138.026,298.795,123.503,289.761,104.1,287.167z M99.793,310.831
									c-7.32-0.979-12.919-4.287-12.504-7.388c0.415-3.102,6.685-4.823,14.006-3.844c7.321,0.979,12.919,4.287,12.504,7.389
									C113.384,310.088,107.114,311.809,99.793,310.831z"/>
							</defs>
							<clipPath id="SVGID_00000034080102176859033800000001490905600650198959_">
								<use xlink:href="#SVGID_00000119085479308915106380000006338566878080059577_"  style="overflow:visible;"/>
							</clipPath>
							<g style="clip-path:url(#SVGID_00000034080102176859033800000001490905600650198959_);">
								<path style="fill:#B18674;" d="M133.827,321.111c-2.181,3.496-5.987,3.173-8.103,2.907c-2.115-0.266-4.21-1.056-6.321-0.759
									c-1.202,0.17-2.367,0.691-3.579,0.612c-2.677-0.173-4.308-3.05-6.748-4.164c-5.107-2.332-11.189,3.735-16.34,1.504
									c-4.291-1.858-5.51-8.619-10.156-9.152c-2.537-0.291-4.76,1.535-6.798,3.073c-2.039,1.539-4.76,2.934-7.031,1.765
									c-0.932-0.48-1.621-1.334-2.134-2.248c-1.33-2.373-5.146-19.736,8.558-25.238c11.297-4.536,20.193-5.474,40.164,0.201
									c17.71,5.033,20.31,13.076,21.118,19.534C137.266,315.605,133.827,321.111,133.827,321.111z"/>
							</g>
						</g>
						<g style="opacity:0.5;">
							<path style="fill:#FFFFFF;" d="M127.559,307.008L127.559,307.008c-0.231,0.291-0.655,0.34-0.946,0.109l-1.318-1.046
								c-0.291-0.231-0.34-0.655-0.109-0.946l0,0c0.231-0.291,0.655-0.34,0.946-0.109l1.318,1.046
								C127.741,306.294,127.79,306.717,127.559,307.008z"/>
						</g>
						<g style="opacity:0.5;">
							<path style="fill:#FFFFFF;" d="M123.623,314.073L123.623,314.073c0.168,0.332,0.035,0.737-0.296,0.905l-1.501,0.76
								c-0.332,0.168-0.737,0.035-0.905-0.296l0,0c-0.168-0.332-0.035-0.737,0.296-0.905l1.501-0.76
								C123.05,313.609,123.455,313.741,123.623,314.073z"/>
						</g>
						<g style="opacity:0.5;">
							<path style="fill:#FFFFFF;" d="M79.318,305.796L79.318,305.796c-0.226-0.295-0.171-0.717,0.124-0.944l1.335-1.025
								c0.295-0.226,0.717-0.171,0.944,0.124h0c0.226,0.295,0.171,0.717-0.124,0.944l-1.335,1.025
								C79.967,306.146,79.545,306.09,79.318,305.796z"/>
						</g>
						<g style="opacity:0.5;">
							<path style="fill:#FFFFFF;" d="M73.419,300.264L73.419,300.264c-0.362,0.082-0.723-0.145-0.806-0.507l-0.373-1.641
								c-0.082-0.363,0.145-0.723,0.507-0.806l0,0c0.362-0.082,0.723,0.145,0.806,0.507l0.373,1.641
								C74.009,299.82,73.782,300.181,73.419,300.264z"/>
						</g>
						<g style="opacity:0.5;">
							<path style="fill:#FFFFFF;" d="M98.746,316.122L98.746,316.122c0.21-0.307,0.629-0.386,0.936-0.176l1.389,0.949
								c0.307,0.21,0.386,0.629,0.176,0.936l0,0c-0.21,0.307-0.629,0.386-0.935,0.176l-1.389-0.95
								C98.615,316.848,98.536,316.429,98.746,316.122z"/>
						</g>
						<g style="opacity:0.5;">
							<path style="fill:#FFFFFF;" d="M88.13,293.103L88.13,293.103c0.343,0.144,0.504,0.538,0.36,0.881l-0.651,1.552
								c-0.144,0.343-0.538,0.504-0.881,0.361l0,0c-0.343-0.144-0.504-0.538-0.36-0.881l0.651-1.552
								C87.392,293.121,87.787,292.96,88.13,293.103z"/>
						</g>
						<g style="opacity:0.5;">
							<path style="fill:#FFFFFF;" d="M70.36,309.898L70.36,309.898c0.349-0.128,0.736,0.05,0.864,0.399l0.581,1.579
								c0.128,0.349-0.05,0.736-0.399,0.864l0,0c-0.349,0.128-0.736-0.05-0.864-0.399l-0.581-1.579
								C69.832,310.413,70.011,310.026,70.36,309.898z"/>
						</g>
						<g style="opacity:0.5;">
							<path style="fill:#FFFFFF;" d="M117.651,298.56L117.651,298.56c-0.232-0.29-0.186-0.714,0.104-0.946l1.313-1.052
								c0.29-0.232,0.714-0.186,0.946,0.104l0,0c0.232,0.29,0.186,0.714-0.104,0.946l-1.313,1.052
								C118.307,298.897,117.883,298.85,117.651,298.56z"/>
						</g>
						<g style="opacity:0.5;">
							<path style="fill:#FFFFFF;" d="M104.502,296.146L104.502,296.146c-0.363,0.083-0.723-0.145-0.806-0.507l-0.373-1.641
								c-0.082-0.362,0.145-0.723,0.507-0.806l0,0c0.363-0.082,0.723,0.145,0.806,0.507l0.373,1.641
								C105.091,295.703,104.864,296.063,104.502,296.146z"/>
						</g>
					</g>
					<g style="opacity:0.38;">
						<path style="fill:#8E6A5E;" d="M121.742,310.236c-20.821,15.298-53.308,6.865-53.308,6.865
							c4.782,7.797,15.21,13.066,28.312,14.817c19.403,2.594,37.322-3.509,39.301-18.316c0.726-5.431-0.768-10.085-3.908-13.93
							C132.139,299.673,135.07,300.443,121.742,310.236z"/>
					</g>
				</g>
				<g>
					<g>
						<g>
							<path style="fill:#F2D9BB;" d="M119.829,97.482l21.382,40.277c1.164,2.193,4.455,1.616,4.803-0.843l6.742-47.704
								c0.257-1.815-1.42-3.306-3.193-2.838l-28.123,7.427C119.842,94.223,119.055,96.023,119.829,97.482z"/>
						</g>
						<g style="opacity:0.38;">
							<path style="fill:#8E6A5E;" d="M136.998,130.432c-0.137,0-0.271-0.062-0.359-0.18c-0.148-0.198-0.107-0.479,0.091-0.626
								l11.272-8.411c0.2-0.148,0.479-0.107,0.626,0.091c0.148,0.198,0.107,0.479-0.091,0.626l-11.272,8.411
								C137.184,130.403,137.09,130.432,136.998,130.432z"/>
						</g>
						<g style="opacity:0.38;">
							<path style="fill:#8E6A5E;" d="M132.754,122.174c-0.129,0-0.257-0.056-0.346-0.163c-0.157-0.19-0.13-0.473,0.061-0.629
								l16.862-13.878c0.191-0.158,0.474-0.129,0.629,0.061c0.157,0.19,0.13,0.473-0.061,0.629l-16.862,13.877
								C132.954,122.14,132.853,122.174,132.754,122.174z"/>
						</g>
						<g style="opacity:0.38;">
							<path style="fill:#8E6A5E;" d="M128.387,113.22c-0.135,0-0.268-0.06-0.356-0.176c-0.15-0.197-0.112-0.477,0.085-0.627
								l23.357-17.783c0.197-0.151,0.478-0.112,0.627,0.085c0.15,0.197,0.112,0.477-0.085,0.627l-23.357,17.783
								C128.577,113.191,128.482,113.22,128.387,113.22z"/>
						</g>
						<g style="opacity:0.38;">
							<path style="fill:#8E6A5E;" d="M122.679,102.56c-0.135,0-0.269-0.061-0.356-0.176c-0.15-0.197-0.112-0.477,0.085-0.627
								l23.357-17.782c0.196-0.151,0.477-0.111,0.627,0.085c0.15,0.197,0.112,0.477-0.085,0.627l-23.357,17.782
								C122.869,102.53,122.774,102.56,122.679,102.56z"/>
						</g>
						<g style="opacity:0.3;">
							<path style="fill:#8E6A5E;" d="M151.459,99.362l-5.445,37.554c-0.348,2.459-3.639,3.037-4.803,0.843l-7.731-14.562
								c0,0,5.34-1.22,9.587-7.587C145.44,112.052,151.459,99.362,151.459,99.362z"/>
						</g>
					</g>
					<g>
						<path style="fill:#F2A2B1;" d="M111.909,87.847c0,0-10.44-24.762,13.29-31.206s27.151,11.585,28.402,22.579
							c0,0,8.349,1.935,5.533,8.306c-2.816,6.371-12.77,2.229-12.77,2.229s-0.205,5.004-4.963,5.989
							c-4.758,0.985-6.85-3.131-6.85-3.131s0.438,6.112-5.277,6.467s-6.139-3.691-6.139-3.691
							c-0.385,1.392-5.896,7.069-11.467,2.749C106.508,94.137,111.909,87.847,111.909,87.847z"/>
					</g>
					<g style="opacity:0.58;">
						<path style="fill:#CE8999;" d="M148.972,63.025c3.07,4.919,4.068,11.264,4.629,16.195c0,0,8.349,1.935,5.533,8.306
							c-2.816,6.371-12.77,2.229-12.77,2.229s-0.205,5.004-4.963,5.989c-4.758,0.985-6.85-3.131-6.85-3.131s0.438,6.112-5.277,6.467
							s-6.139-3.691-6.139-3.691c-0.385,1.392-5.896,7.069-11.467,2.749c-5.159-4.001,0.242-10.29,0.242-10.29
							s4.708-5.369,15.582-4.721c4.113,0.245,7.311-10.178,12.232-14.515C144.643,64.274,148.972,63.025,148.972,63.025z"/>
					</g>
					<g>
						<path style="fill:#AA3F59;" d="M134.074,54.532c0.6,3.527-1.773,6.873-5.3,7.473c-3.527,0.6-6.873-1.773-7.473-5.3
							c-0.6-3.527,1.773-6.873,5.3-7.473C130.128,48.631,133.474,51.004,134.074,54.532z"/>
					</g>
					<g>
						<path style="fill:#2D3962;" d="M126.074,52.017c-2.429-6.868,3.69-12.459,3.752-12.515l0.598,0.666
							c-0.058,0.052-5.733,5.253-3.506,11.55L126.074,52.017z"/>
					</g>
				</g>
				<g>
					<g>
						<polygon style="fill:#FFFFFF;" points="231.865,186.654 215.618,194.404 209.048,211.966 214.785,214.157 221.116,198.595 
							234.527,192.312 						"/>
					</g>
					<g>
						<polyline style="fill:#7470D1;" points="177.305,214.132 170.42,279.467 202.333,286.529 224.814,224.552 						"/>
					</g>
					<g>
						<path style="fill:#5B5BB2;" d="M228.445,227.747l-56.9-12.59c-0.444-0.098-0.724-0.537-0.626-0.981l0.579-2.617
							c0.464-2.098,2.541-3.422,4.638-2.958l50.911,11.265c2.098,0.464,3.422,2.541,2.958,4.638l-0.579,2.617
							C229.328,227.565,228.888,227.845,228.445,227.747z"/>
					</g>
					<g>
						<path style="fill:#5B5BB2;" d="M224.814,224.552l-47.49-10.508l1.603-7.246c0.322-1.453,1.761-2.371,3.214-2.049l42.226,9.343
							c1.453,0.322,2.371,1.761,2.049,3.214L224.814,224.552z"/>
					</g>
					<g>
						<polygon style="fill:#5B5BB2;" points="174.908,237.246 172.93,258.516 209.524,267.226 216.776,247.492 						"/>
					</g>
					<g style="opacity:0.65;">
						<circle style="fill:#FFFFFF;" cx="193.37" cy="252.906" r="7.582"/>
					</g>
					<g style="opacity:0.29;">
						<path style="fill:#2D3962;" d="M218.843,241.011l-16.51,45.517l-31.913-7.061l1.613-15.309c0,0,12.089,1.689,22.381-2.665
							C204.707,257.139,218.843,241.011,218.843,241.011z"/>
					</g>
				</g>
				<g>
					<g>
						<path style="fill:#FF8066;" d="M69.277,249.545c0,0-0.537-7.965,6.948-11.723c7.485-3.758,17.225-4.062,28.202-12.1
							c10.977-8.038,16.885-22.153,21.901-26.008c5.016-3.855,10.822-5.126,15.295-1.382c4.473,3.743,16.16,20.303-19.547,48.086
							c-13.49,10.497-26.924,14.625-36.645,14.215C70.176,259.99,69.277,249.545,69.277,249.545z"/>
					</g>
					<g style="opacity:0.49;">
						<path style="fill:#C15648;" d="M141.623,198.332c4.473,3.743,16.16,20.303-19.547,48.086
							c-13.49,10.497-26.924,14.625-36.645,14.215c-5.721-0.241-9.423-1.86-11.815-3.79c0,0,17.209-8.397,24.161-11.85
							c7.647-3.798,14.57-8.53,22.561-16.506C136.947,211.909,141.623,198.332,141.623,198.332z"/>
					</g>
					<g>
						<path style="fill:#E06D5A;" d="M137.032,200.663c0,0-6.013-10.938-0.593-12.71c5.42-1.772,3.43,6.54,3.43,6.54
							s3.897-7.497,6.328-5.263C151.634,194.228,137.032,200.663,137.032,200.663z"/>
					</g>
					<g>
						<path style="fill:#E06D5A;" d="M73.427,248.09c0,0-10.595,6.598-12.659,1.282c-2.064-5.316,6.344-3.78,6.344-3.78
							s-7.698-3.484-5.598-6.033C66.209,233.859,73.427,248.09,73.427,248.09z"/>
					</g>
					<g>
						<path style="fill:#E06D5A;" d="M89.085,243.995c-0.178,0-0.351-0.096-0.441-0.264c-0.11-0.206-2.675-5.095-0.147-9.897
							c0.128-0.244,0.431-0.338,0.675-0.21c0.244,0.129,0.338,0.431,0.21,0.675c-2.283,4.337,0.119,8.913,0.143,8.959
							c0.131,0.243,0.039,0.546-0.204,0.677C89.245,243.976,89.164,243.995,89.085,243.995z"/>
					</g>
					<g>
						<path style="fill:#E06D5A;" d="M100.464,239.985c-0.143,0-0.284-0.061-0.383-0.179c-0.15-0.179-3.661-4.439-2.169-9.658
							c0.076-0.266,0.355-0.417,0.618-0.344c0.266,0.076,0.42,0.353,0.344,0.618c-1.343,4.699,1.94,8.701,1.973,8.741
							c0.177,0.212,0.149,0.527-0.063,0.705C100.691,239.947,100.577,239.985,100.464,239.985z"/>
					</g>
					<g>
						<path style="fill:#E06D5A;" d="M113.76,231.009c-0.106,0-0.214-0.034-0.305-0.104c-0.185-0.143-4.527-3.552-4.189-8.968
							c0.017-0.275,0.246-0.479,0.53-0.468c0.275,0.017,0.485,0.254,0.468,0.53c-0.304,4.877,3.761,8.082,3.802,8.114
							c0.218,0.169,0.258,0.483,0.09,0.701C114.057,230.942,113.909,231.009,113.76,231.009z"/>
					</g>
					<g>
						<path style="fill:#E06D5A;" d="M125.636,217.413c-0.033,0-0.066-0.003-0.1-0.01c-0.229-0.046-5.629-1.194-7.712-6.205
							c-0.106-0.255,0.015-0.548,0.27-0.654c0.253-0.105,0.548,0.015,0.654,0.27c1.875,4.512,6.937,5.599,6.988,5.609
							c0.27,0.055,0.445,0.319,0.39,0.59C126.077,217.25,125.869,217.413,125.636,217.413z"/>
					</g>
				</g>
				<g>
					<g>
						<path style="fill:#4C2747;" d="M244,132.864l-64.822,14.671c-1.877,0.425-3.742-0.752-4.167-2.629l0,0
							c-0.425-1.877,0.752-3.742,2.629-4.167l64.822-14.671c1.877-0.425,3.742,0.752,4.167,2.629l0,0
							C247.054,130.574,245.877,132.44,244,132.864z"/>
					</g>
					<g>
						<path style="fill:#EDB15B;" d="M242.632,124.188l-66.825,15.124c-0.882,0.2-1.759-0.354-1.958-1.235l0,0
							c-0.2-0.882,0.354-1.759,1.235-1.958l66.825-15.124c0.882-0.2,1.759,0.354,1.958,1.235l0,0
							C244.067,123.112,243.514,123.989,242.632,124.188z"/>
					</g>
					<g>
						<path style="fill:#C95F71;" d="M207.929,135.12l-31.174,7.055c-0.902,0.204-1.8-0.362-2.004-1.264l0,0
							c-0.204-0.903,0.362-1.8,1.264-2.004l31.174-7.056c0.903-0.204,1.8,0.362,2.004,1.264l0,0
							C209.398,134.018,208.832,134.915,207.929,135.12z"/>
					</g>
					<g>
						<path style="fill:#C95F71;" d="M243.937,126.948l-31.174,7.055c-0.903,0.204-1.8-0.362-2.004-1.264l0,0
							c-0.204-0.902,0.362-1.8,1.264-2.004l31.174-7.055c0.902-0.204,1.8,0.362,2.004,1.264l0,0
							C245.406,125.846,244.84,126.744,243.937,126.948z"/>
					</g>
					<g>
						<path style="fill:#E8B65D;" d="M239.955,144.059l-52.614,11.695c-4.905,1.11-9.499-0.715-10.259-4.076l-1.382-3.633
							c-0.14-0.617,0.477-1.282,1.378-1.486l67.882-15.31c0.9-0.204,1.743,0.131,1.883,0.748l0.618,3.966
							C248.22,139.325,244.86,142.949,239.955,144.059z"/>
					</g>
					<g style="opacity:0.69;">
						<path style="fill:#CE9E51;" d="M244.959,131.249c0.9-0.204,1.743,0.131,1.883,0.748l0.618,3.966
							c0.761,3.361-2.599,6.986-7.505,8.096l-52.614,11.695c-4.905,1.11-9.499-0.715-10.259-4.076c0,0,30.496-5.438,42.512-9.759
							C226.348,139.491,244.959,131.249,244.959,131.249z"/>
					</g>
					<g>
						<path style="fill:#33BC6E;" d="M173.526,131.214c0,0-2.83,3.93,0.079,6.041c2.909,2.111,7.13-2.059,7.13-2.059
							s0.399,3.334,4.436,3.064c4.037-0.27,5.257-4.601,5.257-4.601s2.296,3.328,6.493,1.705c4.197-1.623,4.305-4.722,4.305-4.722
							s1.964,2.833,4.769,2.505c5.723-0.669,6.149-4.827,6.149-4.827s2.863,3.91,7.664,2.469c4.802-1.441,4.199-4.919,4.199-4.919
							s2.259,2.08,6.584,1.403c4.325-0.678,4.682-3.785,4.682-3.785s3.915,2.331,6.138,1.516c2.223-0.815,3.139-1.941,2.558-4.671
							c-0.58-2.729-2.703-5.264-2.703-5.264L173.526,131.214z"/>
					</g>
					<g>
						<path style="fill:#E8B65D;" d="M240.857,117.997l-66.625,15.079c-1.333,0.302-2.659-0.534-2.96-1.868l0,0
							c-3.743-16.538,6.63-32.978,23.167-36.721l11.564-2.617c16.538-3.743,32.979,6.63,36.721,23.167l0,0
							C243.026,116.37,242.19,117.696,240.857,117.997z"/>
					</g>
					<g style="opacity:0.69;">
						<path style="fill:#CE9E51;" d="M237.271,103.287c2.56,3.379,4.457,7.346,5.453,11.75l0,0c0.302,1.333-0.534,2.658-1.868,2.96
							l-66.625,15.079c-1.333,0.302-2.659-0.534-2.96-1.868l0,0c-0.542-2.395-0.788-4.788-0.762-7.141c0,0,22.263-4.966,30.525-7.91
							S237.271,103.287,237.271,103.287z"/>
					</g>
					<g>
						<g style="opacity:0.43;">
							<path style="fill:#FFFFFF;" d="M182.776,114.678c-0.472,0.791-1.141,1.325-1.494,1.192c-0.354-0.133-0.258-0.882,0.214-1.673
								c0.472-0.791,1.141-1.325,1.494-1.192C183.344,113.138,183.248,113.887,182.776,114.678z"/>
						</g>
						<g style="opacity:0.43;">
							<path style="fill:#FFFFFF;" d="M197.287,117.492c-0.769-0.499-1.232-1.174-1.035-1.509c0.197-0.335,0.98-0.202,1.749,0.296
								c0.769,0.499,1.233,1.174,1.035,1.509C198.839,118.123,198.056,117.99,197.287,117.492z"/>
						</g>
						<g style="opacity:0.43;">
							<path style="fill:#FFFFFF;" d="M213.823,101.789c-0.769-0.499-1.232-1.174-1.035-1.509c0.197-0.335,0.98-0.202,1.749,0.296
								c0.769,0.499,1.233,1.174,1.035,1.509C215.375,102.42,214.592,102.288,213.823,101.789z"/>
						</g>
						<g style="opacity:0.43;">
							<path style="fill:#FFFFFF;" d="M213.392,116.103c0.54-0.718,1.236-1.066,1.554-0.777c0.318,0.288,0.137,1.104-0.403,1.821
								c-0.54,0.718-1.236,1.066-1.554,0.777C212.671,117.636,212.851,116.82,213.392,116.103z"/>
						</g>
						<g style="opacity:0.43;">
							<path style="fill:#FFFFFF;" d="M195.601,105.909c-0.769-0.499-1.233-1.174-1.035-1.509c0.197-0.335,0.98-0.202,1.749,0.296
								c0.769,0.499,1.232,1.174,1.035,1.509S196.37,106.408,195.601,105.909z"/>
						</g>
						<g style="opacity:0.43;">
							<path style="fill:#FFFFFF;" d="M186.785,125.409c-0.769-0.499-1.233-1.174-1.035-1.509c0.197-0.335,0.98-0.202,1.749,0.296
								c0.769,0.499,1.232,1.174,1.035,1.509C188.337,126.041,187.553,125.908,186.785,125.409z"/>
						</g>
						<g style="opacity:0.43;">
							<path style="fill:#FFFFFF;" d="M228.497,112.522c0.54-0.718,1.236-1.066,1.554-0.777c0.318,0.288,0.137,1.104-0.403,1.821
								c-0.54,0.718-1.236,1.066-1.554,0.777C227.776,114.055,227.957,113.24,228.497,112.522z"/>
						</g>
					</g>
				</g>
			</g>
		</g>
		<g>
			<defs>
				<rect id="SVGID_00000169524373671275751890000003109248337750299283_" width="750" height="500"/>
			</defs>
			<clipPath id="SVGID_00000133504066435492566130000013176787020988448701_">
				<use xlink:href="#SVGID_00000169524373671275751890000003109248337750299283_"  style="overflow:visible;"/>
			</clipPath>
			<g style="clip-path:url(#SVGID_00000133504066435492566130000013176787020988448701_);">
				<g>
					<polygon style="fill:#2D3962;" points="326.787,468.167 325.457,531.303 377.507,534.164 380.533,500.882 388.475,533.786 
						438.437,534.626 435.779,464.844 					"/>
				</g>
				<g>
					<path style="fill:#7470D1;" d="M326.582,492.469l-0.655-1.89c0.191-0.066,19.153-6.819,23.119-22.683l1.94,0.484
						c-1.756,7.023-6.541,13.419-13.836,18.494C331.678,490.682,326.787,492.398,326.582,492.469z"/>
				</g>
				<g>
					<path style="fill:#7470D1;" d="M436.062,492.469c-0.205-0.071-5.097-1.787-10.569-5.594
						c-7.295-5.075-12.08-11.471-13.835-18.494l1.939-0.484c3.966,15.863,22.929,22.616,23.119,22.683L436.062,492.469z"/>
				</g>
				<g>
					<path style="fill:#FFCEAB;" d="M522.732,337.426c-0.55-0.687-0.5-1.673,0.113-2.304c2.892-2.976,11.041-10.95,16.398-12.097
						c4.726-1.013,22.008-0.577,31.466-0.246c1.771,0.062,2.335,2.414,0.78,3.265c-7.654,4.189-21.268,11.621-27.527,14.915
						c-5.997,3.156-9.671,5.257-11.448,6.302c-0.748,0.44-1.703,0.265-2.245-0.412L522.732,337.426z"/>
				</g>
				<g>
					<path style="fill:#FFCEAB;" d="M227.268,337.426c0.55-0.687,0.5-1.673-0.113-2.304c-2.892-2.976-11.041-10.95-16.398-12.097
						c-4.726-1.013-22.008-0.577-31.465-0.246c-1.771,0.062-2.335,2.414-0.781,3.265c7.654,4.189,21.269,11.621,27.527,14.915
						c5.997,3.156,9.671,5.257,11.448,6.302c0.748,0.44,1.703,0.265,2.245-0.412L227.268,337.426z"/>
				</g>
				<g>
					<path style="fill:#7470D1;" d="M525.692,328.363c0,0-31.562,33.628-41.833,31.294c-18.223-4.142-61.279-52.004-82.002-52.892
						c-0.498-0.125-0.993-0.225-1.481-0.271c-12.128-1.134-35.023,0.071-45.406,0.179c-22.378-2.441-61.614,50.934-81.244,55.396
						c-10.272,2.335-49.416-33.706-49.416-33.706l-18.587,15.533c0,0,24.764,64.317,67.021,67.334
						c20.538,1.466,41.506-16.355,52.334-22.823c-3.223,22.885-3.61,46.25-4.904,83.479l121.849-1.237
						c0,0-1.152-38.925-2.797-82.237c9.868,10.417,36.955,21.821,49.32,20.676c34.044-3.152,56.021-65.192,56.021-65.192
						L525.692,328.363z"/>
				</g>
				<g style="opacity:0.5;">
					<path style="fill:#5A5AA8;" d="M439.775,403.252c1.345,36.977,2.246,67.396,2.246,67.396l-121.849,1.237
						c0.365-10.511,0.658-19.917,0.963-28.519c0,0,39.133,3.833,69.726-7.639C407.845,429.359,439.775,403.252,439.775,403.252z"/>
				</g>
				<g style="opacity:0.5;">
					<path style="fill:#5A5AA8;" d="M307.343,399.995c-10.24,6.263-22.495,12.1-34.601,11.235
						c-15.846-1.131-29.233-10.883-39.776-22.631c0,0,21.887,10.736,34.547,12.359C289.076,403.722,307.343,399.995,307.343,399.995
						z"/>
				</g>
				<g style="opacity:0.5;">
					<path style="fill:#5A5AA8;" d="M524.187,383.098c-9.29,13.065-22.111,25.278-35.644,25.99
						c-8.193,0.432-18.387-3.324-18.387-3.324s18.187-2.887,26.848-6.928C505.665,394.794,524.187,383.098,524.187,383.098z"/>
				</g>
				<g>
					<g>
						<g>
							<path style="fill:#FFCEAB;" d="M381.271,300.185c-71.639,1.402-64.191-75.203-63.142-83.719
								c0.068-0.557,0.123-1.115,0.158-1.674l0.066-1.057c0.846-13.587,11.844-24.324,25.447-24.844l59.638-2.28
								c13.81-0.528,25.745,9.627,27.342,23.354C434.654,243.255,433.366,299.165,381.271,300.185z"/>
						</g>
						<g>
							<path style="fill:#2D3962;" d="M394.811,242.645c-0.315,2.706-2.764,4.645-5.47,4.331c-2.706-0.314-4.645-2.763-4.331-5.47
								c0.315-2.706,2.763-4.646,5.47-4.331C393.187,237.49,395.126,239.939,394.811,242.645z"/>
						</g>
						<g>
							<path style="fill:#2D3962;" d="M359.553,241.496c0.627-2.652,3.285-4.292,5.937-3.665s4.292,3.285,3.665,5.937
								c-0.628,2.651-3.285,4.292-5.937,3.665C360.566,246.805,358.926,244.147,359.553,241.496z"/>
						</g>
						<g>
							<path style="fill:#2D3962;" d="M376.587,263.938c-2.65,0-5.212-0.652-7.32-1.877c-0.608-0.354-0.814-1.132-0.461-1.74
								c0.353-0.607,1.131-0.813,1.74-0.461c1.979,1.149,4.47,1.685,7.023,1.497c2.36-0.17,4.537-0.916,6.293-2.156
								c0.572-0.408,1.367-0.27,1.773,0.305c0.406,0.574,0.27,1.368-0.305,1.773c-2.135,1.509-4.756,2.413-7.578,2.617
								C377.363,263.924,376.974,263.938,376.587,263.938z"/>
						</g>
						<g>
							<path style="fill:#FFCEAB;" d="M428.704,239.32c5.614-1.172,16.198-3.125,20.278,1.642
								c3.462,4.044,2.385,10.329-2.008,13.588c-7.172,5.319-19.08,5.831-22.657,6.219"/>
						</g>
						<g>
							<g>
								<path style="fill:#2D3962;" d="M444.698,246.878c-0.22,0-0.442-0.057-0.644-0.176c-3.8-2.239-6.818-1.289-6.85-1.279
									c-0.671,0.222-1.387-0.145-1.605-0.812c-0.22-0.668,0.145-1.387,0.813-1.606c0.166-0.055,4.152-1.314,8.934,1.503
									c0.606,0.357,0.808,1.137,0.451,1.743C445.558,246.654,445.133,246.878,444.698,246.878z"/>
							</g>
							<g>
								<path style="fill:#2D3962;" d="M438.249,251.633c-0.316,0-0.633-0.117-0.879-0.353c-0.508-0.485-0.526-1.289-0.043-1.797
									l0,0c0.014-0.015,1.464-1.562,3.222-4.702c0.344-0.614,1.12-0.831,1.732-0.489c0.613,0.343,0.832,1.119,0.488,1.732
									c-1.932,3.451-3.533,5.144-3.601,5.215C438.919,251.501,438.584,251.633,438.249,251.633z"/>
							</g>
						</g>
						<g>
							<path style="fill:#FFCEAB;" d="M321.253,239.827c-5.625-1.119-16.227-2.972-20.262,1.833
								c-3.423,4.077-2.288,10.352,2.136,13.568c7.222,5.251,19.134,5.651,22.715,6.005"/>
						</g>
						<g>
							<g>
								<path style="fill:#2D3962;" d="M305.319,247.535c-0.432,0-0.853-0.22-1.091-0.617c-0.362-0.602-0.168-1.384,0.434-1.747
									c4.755-2.861,8.752-1.642,8.919-1.588c0.67,0.213,1.04,0.929,0.828,1.598c-0.212,0.668-0.921,1.035-1.59,0.83
									c-0.132-0.041-3.126-0.897-6.845,1.34C305.769,247.475,305.543,247.535,305.319,247.535z"/>
							</g>
							<g>
								<path style="fill:#2D3962;" d="M311.811,252.228c-0.331,0-0.661-0.128-0.911-0.385c-0.068-0.069-1.685-1.748-3.648-5.18
									c-0.349-0.61-0.138-1.388,0.473-1.736c0.609-0.35,1.387-0.138,1.736,0.473c1.786,3.123,3.251,4.655,3.266,4.67
									c0.487,0.505,0.475,1.31-0.029,1.798C312.449,252.109,312.13,252.228,311.811,252.228z"/>
							</g>
						</g>
						<g>
							<polygon style="fill:#FFCEAB;" points="360.659,292.753 360.452,312.02 380.042,315.164 396.379,311.85 395.14,291.029 
															"/>
						</g>
						<g>
							<path style="fill:#2D3962;" d="M385.395,226.885c1.34-1.439,4.098-1.393,6.125-1.268c1.9,0.117,5.347,0.201,6.847,1.448
								c0.794,0.66,1.049,1.713,0.742,2.566c-0.425,1.185-1.741,1.882-3.087,2.151c-1.187,0.237-2.446,0.191-3.689,0.145
								c-1.673-0.063-3.347-0.128-5.021-0.254c-0.413-0.031-0.838-0.068-1.216-0.238c-0.998-0.448-1.389-2.211-1.337-3.022
								C384.8,227.781,385.028,227.28,385.395,226.885z"/>
						</g>
						<g>
							<path style="fill:#2D3962;" d="M368.679,227.397c-1.354-1.427-4.111-1.354-6.137-1.21c-1.899,0.135-5.345,0.252-6.833,1.512
								c-0.788,0.667-1.032,1.722-0.718,2.573c0.437,1.181,1.758,1.866,3.108,2.122c1.189,0.226,2.448,0.168,3.69,0.11
								c1.673-0.079,3.345-0.16,5.019-0.301c0.412-0.035,0.837-0.076,1.214-0.249c0.994-0.457,1.368-2.224,1.309-3.035
								C369.282,228.288,369.05,227.788,368.679,227.397z"/>
						</g>
						<g>
							<path style="fill:#2D3962;" d="M317.654,239.302l6.994,6.336l0.911-29.596l-5.464-0.911
								c-2.112,0.067-4.402-0.498-4.098,1.594L317.654,239.302z"/>
						</g>
						<g>
							<polygon style="fill:#2D3962;" points="432.331,238.125 427.095,244.271 423.224,210.578 432.786,205.797 							"/>
						</g>
						<g>
							<path style="fill:#C64B63;" d="M435.354,210.722l-1.123-20.628c-0.237-4.346-3.952-7.678-8.298-7.441l-5.671,0.309
								c-5.112-12.59-25.026-21.199-48.278-19.932c-23.253,1.266-42.114,11.986-45.828,25.057l-5.145,0.28
								c-4.346,0.237-7.678,3.952-7.441,8.298l1.123,20.628c0.237,4.346,3.952,7.678,8.298,7.441l104.922-5.713
								C432.259,218.783,435.59,215.068,435.354,210.722z"/>
						</g>
						<g style="opacity:0.64;">
							<path style="fill:#AD425C;" d="M401.322,213.496c22.912-6.99,33.434-13.748,33.434-13.748l0.598,10.975
								c0.237,4.346-3.095,8.061-7.441,8.298l-72.804,3.964C355.109,222.984,390.596,216.768,401.322,213.496z"/>
						</g>
						<g>
							<path style="fill:#2D3962;" d="M376.269,187.01c-0.671,0-1.233-0.525-1.27-1.203c-0.039-0.702,0.5-1.302,1.201-1.34
								l49.662-2.705c0.698-0.033,1.302,0.5,1.34,1.201c0.038,0.702-0.499,1.302-1.201,1.34l-49.662,2.705
								C376.316,187.009,376.292,187.01,376.269,187.01z"/>
						</g>
						<g>
							<path style="fill:#2D3962;" d="M321.009,190.018c-0.671,0-1.233-0.525-1.27-1.203c-0.039-0.702,0.499-1.302,1.201-1.34
								l35.293-1.922c0.726-0.05,1.302,0.499,1.34,1.201c0.039,0.702-0.499,1.302-1.201,1.34l-35.293,1.922
								C321.056,190.018,321.032,190.018,321.009,190.018z"/>
						</g>
						<g>
							<path style="fill:#2D3962;" d="M383.462,300.916c-2.274,0-3.76-0.123-3.964-0.142c-0.7-0.061-1.218-0.679-1.156-1.379
								c0.063-0.7,0.678-1.23,1.379-1.156c0.174,0.014,17.335,1.419,27.501-6.024c0.566-0.416,1.363-0.294,1.778,0.274
								c0.416,0.567,0.293,1.363-0.274,1.778C400.803,300.07,389.424,300.916,383.462,300.916z"/>
						</g>
					</g>
					<g>
						<path style="fill:#2D3962;" d="M378.836,316.104c-0.107,0-0.213,0-0.32,0c-14.339-0.026-19.9-2.378-20.129-2.477
							c-0.645-0.281-0.939-1.031-0.658-1.676c0.28-0.643,1.03-0.934,1.67-0.66c0.079,0.033,5.459,2.243,19.121,2.268
							c7.801-0.027,11.473-0.444,18.57-1.825c0.692-0.143,1.357,0.316,1.492,1.006c0.135,0.69-0.316,1.358-1.006,1.492
							C390.512,315.607,386.567,316.104,378.836,316.104z"/>
					</g>
				</g>
				<g>
					<defs>
						<path id="SVGID_00000029005941179469265010000004655902350881439153_" d="M525.692,328.363c0,0-31.562,33.628-41.833,31.294
							c-18.223-4.142-61.279-52.004-82.002-52.892c-0.498-0.125-0.993-0.225-1.481-0.271c-12.128-1.134-35.023,0.071-45.406,0.179
							c-22.378-2.441-61.614,50.934-81.244,55.396c-10.272,2.335-49.416-33.706-49.416-33.706l-18.587,15.533
							c0,0,24.764,64.317,67.021,67.334c20.538,1.466,41.506-16.355,52.334-22.823c-3.223,22.885-3.61,46.25-4.904,83.479
							l121.849-1.237c0,0-1.152-38.925-2.797-82.237c9.868,10.417,36.955,21.821,49.32,20.676
							c34.044-3.152,56.021-65.192,56.021-65.192L525.692,328.363z"/>
					</defs>
					<clipPath id="SVGID_00000044894361437276806130000015409109158652980658_">
						<use xlink:href="#SVGID_00000029005941179469265010000004655902350881439153_"  style="overflow:visible;"/>
					</clipPath>
					<g style="opacity:0.2;clip-path:url(#SVGID_00000044894361437276806130000015409109158652980658_);">
						<g>
							<rect x="190.997" y="449.503" style="fill:#2D3962;" width="370.103" height="11.543"/>
						</g>
						<g>
							<rect x="190.997" y="423.675" style="fill:#2D3962;" width="370.103" height="11.543"/>
						</g>
						<g>
							<rect x="190.997" y="397.847" style="fill:#2D3962;" width="370.103" height="11.543"/>
						</g>
						<g>
							<rect x="190.997" y="372.019" style="fill:#2D3962;" width="370.103" height="11.543"/>
						</g>
						<g>
							<rect x="190.997" y="346.192" style="fill:#2D3962;" width="370.103" height="11.543"/>
						</g>
						<g>
							<rect x="190.997" y="320.364" style="fill:#2D3962;" width="370.103" height="11.543"/>
						</g>
					</g>
				</g>
				<g>
					<path style="fill:#2D3962;" d="M322.22,432.448c-0.011,0-0.022,0-0.033,0c-0.703-0.019-1.257-0.603-1.239-1.305
						c0.542-21.165,3.012-56.635,3.037-56.99c0.049-0.701,0.651-1.225,1.358-1.181c0.701,0.049,1.23,0.657,1.181,1.358
						c-0.025,0.355-2.491,35.768-3.032,56.877C323.474,431.899,322.908,432.448,322.22,432.448z"/>
				</g>
				<g>
					<path style="fill:#2D3962;" d="M440.621,432.448c-0.68,0-1.244-0.537-1.271-1.223l-2.234-56.934
						c-0.027-0.702,0.519-1.294,1.222-1.321c0.693-0.039,1.294,0.52,1.321,1.222l2.234,56.934c0.027,0.702-0.52,1.294-1.222,1.321
						C440.655,432.448,440.637,432.448,440.621,432.448z"/>
				</g>
				<g>
					<path style="fill:#2D3962;" d="M475.759,367.122c-0.484,0-0.946-0.276-1.159-0.746c-0.291-0.64-0.008-1.394,0.632-1.685
						c0.221-0.101,22.152-10.113,28.799-16.759c0.496-0.498,1.303-0.498,1.799,0c0.497,0.496,0.497,1.303,0,1.799
						c-6.971,6.971-28.626,16.859-29.545,17.276C476.114,367.086,475.935,367.122,475.759,367.122z"/>
				</g>
				<g>
					<path style="fill:#2D3962;" d="M278.035,368.338c-0.133,0-0.269-0.021-0.402-0.066c-9.805-3.268-25.231-14.692-25.883-15.177
						c-0.564-0.42-0.681-1.217-0.262-1.781c0.419-0.563,1.217-0.681,1.781-0.262c0.156,0.116,15.752,11.666,25.169,14.806
						c0.667,0.222,1.027,0.942,0.805,1.609C279.065,368,278.568,368.338,278.035,368.338z"/>
				</g>
				<g>
					<path style="fill:#2D3962;" d="M208.752,352.131c-0.344,0-0.687-0.139-0.938-0.412c-0.475-0.518-0.441-1.322,0.077-1.798
						l19.854-18.233c0.519-0.477,1.323-0.44,1.798,0.077c0.475,0.517,0.441,1.322-0.077,1.798l-19.854,18.233
						C209.367,352.021,209.059,352.131,208.752,352.131z"/>
				</g>
				<g>
					<path style="fill:#2D3962;" d="M542.205,351.321c-0.264,0-0.528-0.081-0.757-0.25l-21.879-16.207
						c-0.564-0.418-0.684-1.215-0.265-1.78c0.418-0.564,1.215-0.682,1.78-0.265l21.879,16.207c0.565,0.418,0.684,1.215,0.265,1.78
						C542.979,351.143,542.594,351.321,542.205,351.321z"/>
				</g>
			</g>
		</g>
		<g>
			
				<path style="fill:none;stroke:#FFFFFF;stroke-width:1.6214;stroke-linecap:round;stroke-linejoin:round;stroke-miterlimit:10;" d="
				M260.949,185.839c0,1.229-0.996,2.225-2.225,2.225c-1.229,0-2.225-0.996-2.225-2.225s0.996-2.225,2.225-2.225
				C259.953,183.614,260.949,184.61,260.949,185.839z"/>
			<g>
				
					<line style="fill:none;stroke:#FFFFFF;stroke-width:1.6214;stroke-linecap:round;stroke-linejoin:round;stroke-miterlimit:10;" x1="182.697" y1="43.137" x2="182.697" y2="51.59"/>
				
					<line style="fill:none;stroke:#FFFFFF;stroke-width:1.6214;stroke-linecap:round;stroke-linejoin:round;stroke-miterlimit:10;" x1="186.923" y1="47.363" x2="178.47" y2="47.363"/>
			</g>
			<g>
				
					<line style="fill:none;stroke:#FFFFFF;stroke-width:1.6214;stroke-linecap:round;stroke-linejoin:round;stroke-miterlimit:10;" x1="32.492" y1="73.36" x2="32.492" y2="81.813"/>
				
					<line style="fill:none;stroke:#FFFFFF;stroke-width:1.6214;stroke-linecap:round;stroke-linejoin:round;stroke-miterlimit:10;" x1="36.719" y1="77.587" x2="28.266" y2="77.587"/>
			</g>
			
				<circle style="fill:none;stroke:#FFFFFF;stroke-width:1.6214;stroke-linecap:round;stroke-linejoin:round;stroke-miterlimit:10;" cx="508.19" cy="293.79" r="2.225"/>
			
				<path style="fill:none;stroke:#FFFFFF;stroke-width:1.6214;stroke-linecap:round;stroke-linejoin:round;stroke-miterlimit:10;" d="
				M34.595,264.166c0,1.229-0.996,2.225-2.225,2.225c-1.229,0-2.225-0.996-2.225-2.225c0-1.229,0.996-2.225,2.225-2.225
				C33.599,261.94,34.595,262.937,34.595,264.166z"/>
			<g>
				
					<line style="fill:none;stroke:#FFFFFF;stroke-width:1.6214;stroke-linecap:round;stroke-linejoin:round;stroke-miterlimit:10;" x1="480.342" y1="63.857" x2="480.342" y2="72.31"/>
				
					<line style="fill:none;stroke:#FFFFFF;stroke-width:1.6214;stroke-linecap:round;stroke-linejoin:round;stroke-miterlimit:10;" x1="484.569" y1="68.083" x2="476.116" y2="68.083"/>
			</g>
			<g>
				
					<line style="fill:none;stroke:#FFFFFF;stroke-width:1.6214;stroke-linecap:round;stroke-linejoin:round;stroke-miterlimit:10;" x1="154.712" y1="348.96" x2="154.712" y2="357.413"/>
				
					<line style="fill:none;stroke:#FFFFFF;stroke-width:1.6214;stroke-linecap:round;stroke-linejoin:round;stroke-miterlimit:10;" x1="158.938" y1="353.187" x2="150.485" y2="353.187"/>
			</g>
			
				<path style="fill:none;stroke:#FFFFFF;stroke-width:1.6214;stroke-linecap:round;stroke-linejoin:round;stroke-miterlimit:10;" d="
				M689.642,63.332c0,1.229-0.996,2.225-2.225,2.225c-1.229,0-2.225-0.996-2.225-2.225c0-1.229,0.996-2.225,2.225-2.225
				C688.646,61.106,689.642,62.103,689.642,63.332z"/>
			<g>
				
					<line style="fill:none;stroke:#FFFFFF;stroke-width:1.6214;stroke-linecap:round;stroke-linejoin:round;stroke-miterlimit:10;" x1="596.622" y1="365.591" x2="596.622" y2="374.044"/>
				
					<line style="fill:none;stroke:#FFFFFF;stroke-width:1.6214;stroke-linecap:round;stroke-linejoin:round;stroke-miterlimit:10;" x1="600.849" y1="369.818" x2="592.396" y2="369.818"/>
			</g>
			
				<path style="fill:none;stroke:#FFFFFF;stroke-width:1.6214;stroke-linecap:round;stroke-linejoin:round;stroke-miterlimit:10;" d="
				M717.266,246.273c0,1.229-0.996,2.225-2.225,2.225s-2.225-0.996-2.225-2.225c0-1.229,0.996-2.225,2.225-2.225
				S717.266,245.044,717.266,246.273z"/>
		</g>
		<g>
			<path style="fill:#2D3962;" d="M365.648,119.987l-0.129-2.533c-0.319-5.09,1.32-10.317,5.745-15.635
				c3.187-3.853,5.756-7.098,5.736-10.438c-0.022-3.452-2.292-5.791-7.261-5.878c-3.344,0.021-7.285,1.176-9.894,3.007
				l-3.394-10.816c3.593-2.154,9.48-4.153,16.594-4.199c13.116-0.083,19.17,7.16,19.223,15.391
				c0.048,7.616-4.68,12.574-8.444,16.805c-3.571,4.057-5.069,7.931-4.975,12.452l0.033,1.76L365.648,119.987z M363.147,133.811
				c-0.033-5.359,3.636-9.084,8.83-9.137c5.303-0.033,8.858,3.666,8.949,9.025c0.032,5.175-3.451,9.042-8.83,9.077
				C366.802,142.809,363.163,138.986,363.147,133.811z"/>
		</g>
	</g>
</g>
</svg>
