<svg width="24" height="24" viewBox="0 0 24 24" fill="none" xmlns="http://www.w3.org/2000/svg">
<g id="Arrow-right-icon">
<g id="Group">
<g id="Group_2">
<g id="Group_3">
<path id="Vector" d="M20.725 11.1489L20.7242 11.148L15.8256 6.273C15.4586 5.90779 14.865 5.90915 14.4997 6.27618C14.1345 6.64317 14.1359 7.23675 14.5029 7.602L18 10.875H4C3.48222 10.875 3 11.2947 3 11.8125C3 12.3303 3.48222 12.75 4 12.75H17.7917L14.5029 16.023C14.1359 16.3882 14.1345 16.9818 14.4998 17.3488C14.8651 17.7159 15.4587 17.7172 15.8256 17.352L20.7242 12.477L20.7251 12.4761C21.0923 12.1096 21.0911 11.5141 20.725 11.1489Z" fill="#F7F7F7"/>
</g>
</g>
</g>
</g>
</svg>
