<svg width="16" height="16" viewBox="0 0 16 16" fill="none" xmlns="http://www.w3.org/2000/svg">
<g id="Caloris-icon">
<g id="Group">
<path id="Vector" d="M11.6717 5.11926C11.3383 4.75523 10.8199 4.26389 10.5994 5.37333C10.5244 5.75054 10.3491 6.04133 10.199 6.27545C10.0371 5.45633 9.5502 4.60848 9.09139 4.03683C8.9197 3.82295 8.31051 2.97273 8.19348 1.55036C8.17601 1.33808 7.92386 1.23839 7.76614 1.38158C6.25889 2.74983 5.43158 4.63164 5.40086 6.75017C5.40086 6.75017 4.77323 6.22114 4.43226 5.23695C4.34045 4.97192 3.98514 4.92136 3.83098 5.1557C3.80139 5.2007 3.77395 5.24576 3.7492 5.28951C2.58629 7.34576 2.02689 9.84279 2.54405 12.1659C3.40873 16.0565 9.12854 17.1441 12.1566 14.6989C15.1193 12.3065 14.1775 7.8537 11.6717 5.11926Z" fill="#ED694A"/>
<g id="Group_2">
<path id="Vector_2" d="M3.34889 12.4097C2.83773 10.0617 3.37879 7.54038 4.51439 5.45194C4.48567 5.38266 4.45804 5.311 4.43223 5.2365C4.34042 4.97147 3.98511 4.92091 3.83095 5.15525C3.80136 5.20025 3.77395 5.24532 3.7492 5.28907C2.5863 7.34532 2.02689 9.84235 2.54405 12.1655C2.93845 13.94 4.34308 15.1311 6.04154 15.6701C4.71654 15.0283 3.67892 13.928 3.34889 12.4097Z" fill="#D8553A"/>
<path id="Vector_3" d="M6.20972 6.71089C6.2725 4.78817 6.96794 3.06411 8.21263 1.73967C8.20407 1.66673 8.19772 1.60151 8.19363 1.55201C8.17578 1.33792 7.93285 1.23055 7.77582 1.37248C6.32004 2.68867 5.43272 4.55145 5.40088 6.74983L5.67335 6.96142C5.80754 7.06564 5.98935 7.06111 6.1175 6.96564C6.19397 6.90083 6.20494 6.80301 6.20972 6.71089Z" fill="#D8553A"/>
</g>
<path id="Vector_4" d="M10.7573 7.96316C10.511 7.69429 10.1281 7.33135 9.96522 8.15082C9.90985 8.42941 9.78038 8.64422 9.66954 8.81716C9.55001 8.21213 9.19032 7.58588 8.85144 7.16366C8.72463 7.00569 8.27469 6.37772 8.18822 5.32707C8.17532 5.17025 7.9891 5.09666 7.8726 5.20241C6.75932 6.213 6.14822 7.603 6.12557 9.16775C6.12557 9.16775 5.66197 8.777 5.41016 8.05007C5.34235 7.85432 5.07988 7.81697 4.96604 7.99007C4.94419 8.02329 4.92391 8.0566 4.90563 8.08891C4.04666 9.60769 3.63347 11.452 4.01544 13.168C4.65413 16.0416 8.87888 16.845 11.1155 15.0388C13.3038 13.2718 12.6082 9.98291 10.7573 7.96316Z" fill="#F4A32C"/>
<path id="Vector_5" d="M4.81204 13.3934C4.47385 11.716 4.82413 9.91619 5.56679 8.41744C5.51019 8.30662 5.45657 8.18412 5.41013 8.05012C5.34232 7.85437 5.07985 7.817 4.96601 7.99009C4.94416 8.02331 4.92388 8.05662 4.9056 8.08897C4.04666 9.60775 3.63351 11.4521 4.01541 13.168C4.31247 14.5045 5.38532 15.3929 6.67294 15.7795C5.7581 15.3207 5.03779 14.5146 4.81204 13.3934Z" fill="#E89528"/>
<path id="Vector_6" d="M9.92277 10.5597C9.75608 10.3777 9.49683 10.1319 9.38658 10.6867C9.34911 10.8753 9.26146 11.0207 9.18639 11.1377C9.10546 10.7282 8.86202 10.3042 8.63258 10.0184C8.54677 9.9115 8.24218 9.4864 8.18361 8.77518C8.17486 8.66903 8.04883 8.61918 7.96996 8.69081C7.21633 9.37493 6.80268 10.3159 6.78733 11.3751C6.78733 11.3751 6.47349 11.1106 6.30305 10.6185C6.25714 10.486 6.07949 10.4607 6.00243 10.5779C5.98761 10.6003 5.97393 10.6229 5.96152 10.6448C5.38008 11.6729 5.10036 12.9214 5.35893 14.083C5.79127 16.0283 8.65118 16.5721 10.1652 15.3495C10.6837 14.9308 11.0051 14.3408 11.0703 13.6882C11.1687 12.6998 10.7883 11.5042 9.92277 10.5597Z" fill="#F4D44E"/>
<path id="Vector_7" d="M9.14824 12.9691C9.05537 12.8677 8.91096 12.7308 8.84952 13.0398C8.82865 13.1449 8.77983 13.2259 8.73799 13.2911C8.6929 13.063 8.55727 12.8268 8.42946 12.6675C8.38165 12.608 8.21193 12.3711 8.1793 11.9749C8.17443 11.9157 8.10418 11.888 8.06027 11.9279C7.64043 12.309 7.40993 12.8332 7.4014 13.4234C7.4014 13.4234 7.22655 13.276 7.13158 13.0018C7.10599 12.928 7.00702 12.9139 6.96412 12.9792C6.95587 12.9917 6.94824 13.0043 6.94137 13.0165C6.61743 13.5893 6.46158 14.2849 6.60565 14.932C6.93371 16.408 9.62271 16.3632 9.78765 14.712C9.8424 14.1614 9.63046 13.4953 9.14824 12.9691Z" fill="#EAE9E8"/>
<path id="Vector_8" d="M7.22999 15.2249C7.08593 14.646 7.24177 14.0238 7.56571 13.5114C7.57258 13.5005 7.58024 13.4893 7.58846 13.478C7.6314 13.4196 7.73037 13.4322 7.75593 13.4983C7.8509 13.7435 8.02574 13.8754 8.02574 13.8754C8.03277 13.4416 8.1899 13.0479 8.47849 12.732C8.41396 12.6427 8.21652 12.4272 8.1793 11.9749C8.17443 11.9157 8.10418 11.888 8.06027 11.9279C7.64043 12.309 7.40993 12.8332 7.4014 13.4234C7.4014 13.4234 7.22655 13.276 7.13158 13.0019C7.10602 12.928 7.00702 12.9139 6.96412 12.9792C6.95587 12.9918 6.94824 13.0043 6.94137 13.0165C6.61743 13.5893 6.46158 14.2849 6.60565 14.932C6.73896 15.5319 7.28665 15.8924 7.89215 15.9794C7.56552 15.819 7.31449 15.565 7.22999 15.2249Z" fill="#F7E7A1"/>
<g id="Group_3">
<path id="Vector_9" d="M5.76849 2.12641C6.44427 1.57675 6.44277 0.548406 5.76849 0C5.09271 0.549625 5.09418 1.578 5.76849 2.12641Z" fill="#D8553A"/>
<path id="Vector_10" d="M13.8684 6.53803C14.5442 5.98837 14.5427 4.96003 13.8684 4.41162C13.5596 4.66281 13.1942 5.98962 13.8684 6.53803Z" fill="#D8553A"/>
<path id="Vector_11" d="M1.89934 6.95636C2.38637 6.5602 2.38531 5.81911 1.89934 5.42383C1.67674 5.60486 1.41337 6.56111 1.89934 6.95636Z" fill="#D8553A"/>
<path id="Vector_12" d="M10.3346 3.659C10.8216 3.26284 10.8206 2.52175 10.3346 2.12646C9.84756 2.52259 9.84865 3.26375 10.3346 3.659Z" fill="#D8553A"/>
</g>
<path id="Vector_13" d="M6.74689 8.91644C6.85874 7.59607 7.36296 6.42204 8.20958 5.527C8.20102 5.46213 8.1938 5.39554 8.18818 5.32707C8.17527 5.17025 7.98905 5.09666 7.87255 5.20241C6.99036 6.00322 6.42418 7.04247 6.21561 8.21794L6.2153 8.21785C6.19983 8.30504 6.18064 8.43204 6.16852 8.53182C6.16855 8.53191 6.16858 8.53197 6.16864 8.53207C6.1433 8.74032 6.12861 8.95232 6.12549 9.16779C6.14905 9.17238 6.68243 9.44654 6.74689 8.91644Z" fill="#E89528"/>
<g id="Group_4">
<path id="Vector_14" d="M6.13827 14.359C5.90843 13.2738 6.10418 12.1166 6.55893 11.114C6.47083 10.9904 6.37443 10.8245 6.30308 10.6185C6.25714 10.486 6.07952 10.4607 6.00243 10.5779C5.98764 10.6003 5.97389 10.6229 5.96152 10.6448C5.38008 11.6729 5.10036 12.9214 5.35893 14.083C5.56143 14.994 6.29633 15.5976 7.17605 15.8564C6.66399 15.5165 6.27664 15.0133 6.13827 14.359Z" fill="#E8C842"/>
<path id="Vector_15" d="M7.61719 10.9009C7.69338 10.3564 7.9161 9.7564 8.26669 9.25481C8.2285 9.11318 8.19847 8.95315 8.18382 8.77518C8.17507 8.66903 8.049 8.61918 7.97016 8.69081C7.5006 9.11709 7.16357 9.64328 6.9721 10.2354L6.9716 10.2353C6.94147 10.3283 6.89888 10.4825 6.87307 10.6041C6.87329 10.6041 6.8735 10.6041 6.87372 10.604C6.82085 10.8522 6.79144 11.1098 6.7876 11.3751C7.20922 11.4277 7.558 11.3233 7.61719 10.9009Z" fill="#E8C842"/>
</g>
</g>
</g>
</svg>
