<svg width="390" height="403" viewBox="0 0 390 403" fill="none" xmlns="http://www.w3.org/2000/svg">
<g filter="url(#filter0_ddiiii_238_1830)">
<path d="M195 215.5C230.346 215.5 259 186.846 259 151.5C259 116.154 230.346 87.5 195 87.5C159.654 87.5 131 116.154 131 151.5C131 186.846 159.654 215.5 195 215.5Z" fill="url(#paint0_radial_238_1830)"/>
<path d="M195 215.5C230.346 215.5 259 186.846 259 151.5C259 116.154 230.346 87.5 195 87.5C159.654 87.5 131 116.154 131 151.5C131 186.846 159.654 215.5 195 215.5Z" fill="url(#paint1_radial_238_1830)" fill-opacity="0.4"/>
<path d="M195 215.5C230.346 215.5 259 186.846 259 151.5C259 116.154 230.346 87.5 195 87.5C159.654 87.5 131 116.154 131 151.5C131 186.846 159.654 215.5 195 215.5Z" fill="url(#paint2_radial_238_1830)" fill-opacity="0.4"/>
</g>
<g filter="url(#filter1_dddiii_238_1830)">
<path d="M259.771 113.957C258.7 108.172 255.486 103.457 250.129 101.957C244.343 100.457 239.2 102.6 234.271 107.743C231.486 100.029 227.2 94.2432 220.343 91.2432C213.486 88.2432 206.629 90.386 202.343 95.7432C197.843 101.315 196.129 110.1 200.843 121.457C205.343 132.172 225.271 153.6 225.914 154.243C226.771 153.815 249.057 139.886 254.414 133.029C259.771 126.386 260.843 119.743 259.771 113.957Z" fill="url(#paint3_linear_238_1830)"/>
<path d="M259.771 113.957C258.7 108.172 255.486 103.457 250.129 101.957C244.343 100.457 239.2 102.6 234.271 107.743C231.486 100.029 227.2 94.2432 220.343 91.2432C213.486 88.2432 206.629 90.386 202.343 95.7432C197.843 101.315 196.129 110.1 200.843 121.457C205.343 132.172 225.271 153.6 225.914 154.243C226.771 153.815 249.057 139.886 254.414 133.029C259.771 126.386 260.843 119.743 259.771 113.957Z" fill="url(#paint4_radial_238_1830)" fill-opacity="0.8"/>
<path d="M259.771 113.957C258.7 108.172 255.486 103.457 250.129 101.957C244.343 100.457 239.2 102.6 234.271 107.743C231.486 100.029 227.2 94.2432 220.343 91.2432C213.486 88.2432 206.629 90.386 202.343 95.7432C197.843 101.315 196.129 110.1 200.843 121.457C205.343 132.172 225.271 153.6 225.914 154.243C226.771 153.815 249.057 139.886 254.414 133.029C259.771 126.386 260.843 119.743 259.771 113.957Z" fill="url(#paint5_radial_238_1830)" fill-opacity="0.8"/>
</g>
<g filter="url(#filter2_dddiii_238_1830)">
<path d="M189.486 95.7432C185.2 90.386 178.343 88.2432 171.486 91.2432C164.629 94.2432 160.343 100.029 157.557 107.743C152.414 102.815 147.272 100.457 141.486 102.172C136.343 103.672 132.914 108.386 131.843 114.172C130.772 119.743 132.057 126.6 137.2 133.243C142.772 139.886 165.057 153.815 165.914 154.243C166.557 153.6 186.486 132.172 190.986 121.457C195.7 110.1 193.986 101.529 189.486 95.7432Z" fill="url(#paint6_linear_238_1830)"/>
<path d="M189.486 95.7432C185.2 90.386 178.343 88.2432 171.486 91.2432C164.629 94.2432 160.343 100.029 157.557 107.743C152.414 102.815 147.272 100.457 141.486 102.172C136.343 103.672 132.914 108.386 131.843 114.172C130.772 119.743 132.057 126.6 137.2 133.243C142.772 139.886 165.057 153.815 165.914 154.243C166.557 153.6 186.486 132.172 190.986 121.457C195.7 110.1 193.986 101.529 189.486 95.7432Z" fill="url(#paint7_radial_238_1830)" fill-opacity="0.8"/>
<path d="M189.486 95.7432C185.2 90.386 178.343 88.2432 171.486 91.2432C164.629 94.2432 160.343 100.029 157.557 107.743C152.414 102.815 147.272 100.457 141.486 102.172C136.343 103.672 132.914 108.386 131.843 114.172C130.772 119.743 132.057 126.6 137.2 133.243C142.772 139.886 165.057 153.815 165.914 154.243C166.557 153.6 186.486 132.172 190.986 121.457C195.7 110.1 193.986 101.529 189.486 95.7432Z" fill="url(#paint8_radial_238_1830)" fill-opacity="0.8"/>
</g>
<g filter="url(#filter3_ii_238_1830)">
<path d="M195 162.167C182.118 162.167 173.571 160.667 163 158.611C160.586 158.146 155.889 158.611 155.889 165.723C155.889 179.945 172.227 197.723 195 197.723C217.77 197.723 234.111 179.945 234.111 165.723C234.111 158.611 229.414 158.142 227 158.611C216.43 160.667 207.882 162.167 195 162.167Z" fill="#9F5600"/>
<path d="M195 162.167C182.118 162.167 173.571 160.667 163 158.611C160.586 158.146 155.889 158.611 155.889 165.723C155.889 179.945 172.227 197.723 195 197.723C217.77 197.723 234.111 179.945 234.111 165.723C234.111 158.611 229.414 158.142 227 158.611C216.43 160.667 207.882 162.167 195 162.167Z" fill="url(#paint9_radial_238_1830)" fill-opacity="0.5"/>
</g>
<g filter="url(#filter4_di_238_1830)">
<path d="M169.018 169.84C166.237 167.83 168.511 164.56 171.874 165.24C177.314 166.339 185.023 167.347 195 167.347C204.977 167.347 212.686 166.339 218.127 165.24C221.49 164.56 223.764 167.83 220.983 169.84C215.948 173.479 207.737 177.1 195 177.1C182.263 177.1 174.053 173.479 169.018 169.84Z" fill="url(#paint10_radial_238_1830)"/>
</g>
<defs>
<filter id="filter0_ddiiii_238_1830" x="-22.6" y="-33.1857" width="435.2" height="435.2" filterUnits="userSpaceOnUse" color-interpolation-filters="sRGB">
<feFlood flood-opacity="0" result="BackgroundImageFix"/>
<feColorMatrix in="SourceAlpha" type="matrix" values="0 0 0 0 0 0 0 0 0 0 0 0 0 0 0 0 0 0 127 0" result="hardAlpha"/>
<feMorphology radius="7.31429" operator="erode" in="SourceAlpha" result="effect1_dropShadow_238_1830"/>
<feOffset dy="32.9143"/>
<feGaussianBlur stdDeviation="80.4571"/>
<feColorMatrix type="matrix" values="0 0 0 0 0.0941176 0 0 0 0 0.152941 0 0 0 0 0.294118 0 0 0 0.24 0"/>
<feBlend mode="normal" in2="BackgroundImageFix" result="effect1_dropShadow_238_1830"/>
<feColorMatrix in="SourceAlpha" type="matrix" values="0 0 0 0 0 0 0 0 0 0 0 0 0 0 0 0 0 0 127 0" result="hardAlpha"/>
<feMorphology radius="10.9714" operator="erode" in="SourceAlpha" result="effect2_dropShadow_238_1830"/>
<feOffset dy="14.6286"/>
<feGaussianBlur stdDeviation="25.6"/>
<feColorMatrix type="matrix" values="0 0 0 0 0.0941176 0 0 0 0 0.152941 0 0 0 0 0.294118 0 0 0 0.22 0"/>
<feBlend mode="normal" in2="effect1_dropShadow_238_1830" result="effect2_dropShadow_238_1830"/>
<feBlend mode="normal" in="SourceGraphic" in2="effect2_dropShadow_238_1830" result="shape"/>
<feColorMatrix in="SourceAlpha" type="matrix" values="0 0 0 0 0 0 0 0 0 0 0 0 0 0 0 0 0 0 127 0" result="hardAlpha"/>
<feOffset dy="-18.2857"/>
<feGaussianBlur stdDeviation="9.14286"/>
<feComposite in2="hardAlpha" operator="arithmetic" k2="-1" k3="1"/>
<feColorMatrix type="matrix" values="0 0 0 0 0.741667 0 0 0 0 0.356 0 0 0 0 0 0 0 0 0.3 0"/>
<feBlend mode="normal" in2="shape" result="effect3_innerShadow_238_1830"/>
<feColorMatrix in="SourceAlpha" type="matrix" values="0 0 0 0 0 0 0 0 0 0 0 0 0 0 0 0 0 0 127 0" result="hardAlpha"/>
<feOffset dy="-5.48571"/>
<feGaussianBlur stdDeviation="2.74286"/>
<feComposite in2="hardAlpha" operator="arithmetic" k2="-1" k3="1"/>
<feColorMatrix type="matrix" values="0 0 0 0 0.741176 0 0 0 0 0.356863 0 0 0 0 0 0 0 0 0.25 0"/>
<feBlend mode="normal" in2="effect3_innerShadow_238_1830" result="effect4_innerShadow_238_1830"/>
<feColorMatrix in="SourceAlpha" type="matrix" values="0 0 0 0 0 0 0 0 0 0 0 0 0 0 0 0 0 0 127 0" result="hardAlpha"/>
<feOffset/>
<feGaussianBlur stdDeviation="5.48571"/>
<feComposite in2="hardAlpha" operator="arithmetic" k2="-1" k3="1"/>
<feColorMatrix type="matrix" values="0 0 0 0 0.776471 0 0 0 0 0.278431 0 0 0 0 0 0 0 0 0.75 0"/>
<feBlend mode="normal" in2="effect4_innerShadow_238_1830" result="effect5_innerShadow_238_1830"/>
<feColorMatrix in="SourceAlpha" type="matrix" values="0 0 0 0 0 0 0 0 0 0 0 0 0 0 0 0 0 0 127 0" result="hardAlpha"/>
<feOffset dy="-5.48571"/>
<feGaussianBlur stdDeviation="2.74286"/>
<feComposite in2="hardAlpha" operator="arithmetic" k2="-1" k3="1"/>
<feColorMatrix type="matrix" values="0 0 0 0 1 0 0 0 0 1 0 0 0 0 1 0 0 0 0.5 0"/>
<feBlend mode="normal" in2="effect5_innerShadow_238_1830" result="effect6_innerShadow_238_1830"/>
</filter>
<filter id="filter1_dddiii_238_1830" x="44.4347" y="-30.8073" width="369.31" height="371.565" filterUnits="userSpaceOnUse" color-interpolation-filters="sRGB">
<feFlood flood-opacity="0" result="BackgroundImageFix"/>
<feColorMatrix in="SourceAlpha" type="matrix" values="0 0 0 0 0 0 0 0 0 0 0 0 0 0 0 0 0 0 127 0" result="hardAlpha"/>
<feMorphology radius="10.9714" operator="erode" in="SourceAlpha" result="effect1_dropShadow_238_1830"/>
<feOffset dx="3.65714" dy="5.48571"/>
<feGaussianBlur stdDeviation="3.65714"/>
<feColorMatrix type="matrix" values="0 0 0 0 0.0941176 0 0 0 0 0.152941 0 0 0 0 0.294118 0 0 0 0.22 0"/>
<feBlend mode="multiply" in2="BackgroundImageFix" result="effect1_dropShadow_238_1830"/>
<feColorMatrix in="SourceAlpha" type="matrix" values="0 0 0 0 0 0 0 0 0 0 0 0 0 0 0 0 0 0 127 0" result="hardAlpha"/>
<feMorphology radius="7.31429" operator="erode" in="SourceAlpha" result="effect2_dropShadow_238_1830"/>
<feOffset dy="32.9143"/>
<feGaussianBlur stdDeviation="80.4571"/>
<feColorMatrix type="matrix" values="0 0 0 0 0.0941176 0 0 0 0 0.152941 0 0 0 0 0.294118 0 0 0 0.24 0"/>
<feBlend mode="normal" in2="effect1_dropShadow_238_1830" result="effect2_dropShadow_238_1830"/>
<feColorMatrix in="SourceAlpha" type="matrix" values="0 0 0 0 0 0 0 0 0 0 0 0 0 0 0 0 0 0 127 0" result="hardAlpha"/>
<feMorphology radius="10.9714" operator="erode" in="SourceAlpha" result="effect3_dropShadow_238_1830"/>
<feOffset dy="14.6286"/>
<feGaussianBlur stdDeviation="25.6"/>
<feColorMatrix type="matrix" values="0 0 0 0 0.0941176 0 0 0 0 0.152941 0 0 0 0 0.294118 0 0 0 0.22 0"/>
<feBlend mode="normal" in2="effect2_dropShadow_238_1830" result="effect3_dropShadow_238_1830"/>
<feBlend mode="normal" in="SourceGraphic" in2="effect3_dropShadow_238_1830" result="shape"/>
<feColorMatrix in="SourceAlpha" type="matrix" values="0 0 0 0 0 0 0 0 0 0 0 0 0 0 0 0 0 0 127 0" result="hardAlpha"/>
<feOffset/>
<feGaussianBlur stdDeviation="1.82857"/>
<feComposite in2="hardAlpha" operator="arithmetic" k2="-1" k3="1"/>
<feColorMatrix type="matrix" values="0 0 0 0 0.441667 0 0 0 0 0 0 0 0 0 0 0 0 0 1 0"/>
<feBlend mode="normal" in2="shape" result="effect4_innerShadow_238_1830"/>
<feColorMatrix in="SourceAlpha" type="matrix" values="0 0 0 0 0 0 0 0 0 0 0 0 0 0 0 0 0 0 127 0" result="hardAlpha"/>
<feOffset dx="-1.82857" dy="-5.48571"/>
<feGaussianBlur stdDeviation="6.4"/>
<feComposite in2="hardAlpha" operator="arithmetic" k2="-1" k3="1"/>
<feColorMatrix type="matrix" values="0 0 0 0 1 0 0 0 0 1 0 0 0 0 1 0 0 0 0.4 0"/>
<feBlend mode="normal" in2="effect4_innerShadow_238_1830" result="effect5_innerShadow_238_1830"/>
<feColorMatrix in="SourceAlpha" type="matrix" values="0 0 0 0 0 0 0 0 0 0 0 0 0 0 0 0 0 0 127 0" result="hardAlpha"/>
<feOffset dx="3.65714" dy="3.65714"/>
<feGaussianBlur stdDeviation="3.65714"/>
<feComposite in2="hardAlpha" operator="arithmetic" k2="-1" k3="1"/>
<feColorMatrix type="matrix" values="0 0 0 0 1 0 0 0 0 0.160784 0 0 0 0 0.160784 0 0 0 1 0"/>
<feBlend mode="normal" in2="effect5_innerShadow_238_1830" result="effect6_innerShadow_238_1830"/>
</filter>
<filter id="filter2_dddiii_238_1830" x="-22.1063" y="-30.8073" width="369.5" height="371.565" filterUnits="userSpaceOnUse" color-interpolation-filters="sRGB">
<feFlood flood-opacity="0" result="BackgroundImageFix"/>
<feColorMatrix in="SourceAlpha" type="matrix" values="0 0 0 0 0 0 0 0 0 0 0 0 0 0 0 0 0 0 127 0" result="hardAlpha"/>
<feMorphology radius="10.9714" operator="erode" in="SourceAlpha" result="effect1_dropShadow_238_1830"/>
<feOffset dx="-5.48571" dy="3.65714"/>
<feGaussianBlur stdDeviation="3.65714"/>
<feColorMatrix type="matrix" values="0 0 0 0 0.0941176 0 0 0 0 0.152941 0 0 0 0 0.294118 0 0 0 0.22 0"/>
<feBlend mode="multiply" in2="BackgroundImageFix" result="effect1_dropShadow_238_1830"/>
<feColorMatrix in="SourceAlpha" type="matrix" values="0 0 0 0 0 0 0 0 0 0 0 0 0 0 0 0 0 0 127 0" result="hardAlpha"/>
<feMorphology radius="7.31429" operator="erode" in="SourceAlpha" result="effect2_dropShadow_238_1830"/>
<feOffset dy="32.9143"/>
<feGaussianBlur stdDeviation="80.4571"/>
<feColorMatrix type="matrix" values="0 0 0 0 0.0941176 0 0 0 0 0.152941 0 0 0 0 0.294118 0 0 0 0.24 0"/>
<feBlend mode="normal" in2="effect1_dropShadow_238_1830" result="effect2_dropShadow_238_1830"/>
<feColorMatrix in="SourceAlpha" type="matrix" values="0 0 0 0 0 0 0 0 0 0 0 0 0 0 0 0 0 0 127 0" result="hardAlpha"/>
<feMorphology radius="10.9714" operator="erode" in="SourceAlpha" result="effect3_dropShadow_238_1830"/>
<feOffset dy="14.6286"/>
<feGaussianBlur stdDeviation="25.6"/>
<feColorMatrix type="matrix" values="0 0 0 0 0.0941176 0 0 0 0 0.152941 0 0 0 0 0.294118 0 0 0 0.22 0"/>
<feBlend mode="normal" in2="effect2_dropShadow_238_1830" result="effect3_dropShadow_238_1830"/>
<feBlend mode="normal" in="SourceGraphic" in2="effect3_dropShadow_238_1830" result="shape"/>
<feColorMatrix in="SourceAlpha" type="matrix" values="0 0 0 0 0 0 0 0 0 0 0 0 0 0 0 0 0 0 127 0" result="hardAlpha"/>
<feOffset/>
<feGaussianBlur stdDeviation="1.82857"/>
<feComposite in2="hardAlpha" operator="arithmetic" k2="-1" k3="1"/>
<feColorMatrix type="matrix" values="0 0 0 0 0.441667 0 0 0 0 0 0 0 0 0 0 0 0 0 1 0"/>
<feBlend mode="normal" in2="shape" result="effect4_innerShadow_238_1830"/>
<feColorMatrix in="SourceAlpha" type="matrix" values="0 0 0 0 0 0 0 0 0 0 0 0 0 0 0 0 0 0 127 0" result="hardAlpha"/>
<feOffset dx="-1.82857" dy="-5.48571"/>
<feGaussianBlur stdDeviation="6.4"/>
<feComposite in2="hardAlpha" operator="arithmetic" k2="-1" k3="1"/>
<feColorMatrix type="matrix" values="0 0 0 0 1 0 0 0 0 1 0 0 0 0 1 0 0 0 0.4 0"/>
<feBlend mode="normal" in2="effect4_innerShadow_238_1830" result="effect5_innerShadow_238_1830"/>
<feColorMatrix in="SourceAlpha" type="matrix" values="0 0 0 0 0 0 0 0 0 0 0 0 0 0 0 0 0 0 127 0" result="hardAlpha"/>
<feOffset dx="3.65714" dy="3.65714"/>
<feGaussianBlur stdDeviation="3.65714"/>
<feComposite in2="hardAlpha" operator="arithmetic" k2="-1" k3="1"/>
<feColorMatrix type="matrix" values="0 0 0 0 1 0 0 0 0 0.160784 0 0 0 0 0.160784 0 0 0 1 0"/>
<feBlend mode="normal" in2="effect5_innerShadow_238_1830" result="effect6_innerShadow_238_1830"/>
</filter>
<filter id="filter3_ii_238_1830" x="155.889" y="158.481" width="78.2222" height="46.5555" filterUnits="userSpaceOnUse" color-interpolation-filters="sRGB">
<feFlood flood-opacity="0" result="BackgroundImageFix"/>
<feBlend mode="normal" in="SourceGraphic" in2="BackgroundImageFix" result="shape"/>
<feColorMatrix in="SourceAlpha" type="matrix" values="0 0 0 0 0 0 0 0 0 0 0 0 0 0 0 0 0 0 127 0" result="hardAlpha"/>
<feOffset dy="1.82857"/>
<feGaussianBlur stdDeviation="1.82857"/>
<feComposite in2="hardAlpha" operator="arithmetic" k2="-1" k3="1"/>
<feColorMatrix type="matrix" values="0 0 0 0 0 0 0 0 0 0 0 0 0 0 0 0 0 0 0.25 0"/>
<feBlend mode="normal" in2="shape" result="effect1_innerShadow_238_1830"/>
<feColorMatrix in="SourceAlpha" type="matrix" values="0 0 0 0 0 0 0 0 0 0 0 0 0 0 0 0 0 0 127 0" result="hardAlpha"/>
<feOffset dy="7.31429"/>
<feGaussianBlur stdDeviation="3.65714"/>
<feComposite in2="hardAlpha" operator="arithmetic" k2="-1" k3="1"/>
<feColorMatrix type="matrix" values="0 0 0 0 0 0 0 0 0 0 0 0 0 0 0 0 0 0 0.15 0"/>
<feBlend mode="normal" in2="effect1_innerShadow_238_1830" result="effect2_innerShadow_238_1830"/>
</filter>
<filter id="filter4_di_238_1830" x="164.113" y="163.32" width="61.7738" height="21.094" filterUnits="userSpaceOnUse" color-interpolation-filters="sRGB">
<feFlood flood-opacity="0" result="BackgroundImageFix"/>
<feColorMatrix in="SourceAlpha" type="matrix" values="0 0 0 0 0 0 0 0 0 0 0 0 0 0 0 0 0 0 127 0" result="hardAlpha"/>
<feMorphology radius="10.9714" operator="erode" in="SourceAlpha" result="effect1_dropShadow_238_1830"/>
<feOffset dy="3.65714"/>
<feGaussianBlur stdDeviation="7.31429"/>
<feColorMatrix type="matrix" values="0 0 0 0 0.0941176 0 0 0 0 0.152941 0 0 0 0 0.294118 0 0 0 0.15 0"/>
<feBlend mode="normal" in2="BackgroundImageFix" result="effect1_dropShadow_238_1830"/>
<feBlend mode="normal" in="SourceGraphic" in2="effect1_dropShadow_238_1830" result="shape"/>
<feColorMatrix in="SourceAlpha" type="matrix" values="0 0 0 0 0 0 0 0 0 0 0 0 0 0 0 0 0 0 127 0" result="hardAlpha"/>
<feOffset dx="-1.82857" dy="-1.82857"/>
<feGaussianBlur stdDeviation="0.914286"/>
<feComposite in2="hardAlpha" operator="arithmetic" k2="-1" k3="1"/>
<feColorMatrix type="matrix" values="0 0 0 0 0.741176 0 0 0 0 0.356863 0 0 0 0 0 0 0 0 0.3 0"/>
<feBlend mode="normal" in2="shape" result="effect2_innerShadow_238_1830"/>
</filter>
<radialGradient id="paint0_radial_238_1830" cx="0" cy="0" r="1" gradientUnits="userSpaceOnUse" gradientTransform="translate(194.045 117.112) rotate(90) scale(37.2537)">
<stop stop-color="#FDF3DF"/>
<stop offset="1" stop-color="#FFC533"/>
</radialGradient>
<radialGradient id="paint1_radial_238_1830" cx="0" cy="0" r="1" gradientUnits="userSpaceOnUse" gradientTransform="translate(231.298 162.963) rotate(172.648) scale(29.8574)">
<stop stop-color="#FF5C28"/>
<stop offset="1" stop-color="#FF5C28" stop-opacity="0"/>
</radialGradient>
<radialGradient id="paint2_radial_238_1830" cx="0" cy="0" r="1" gradientUnits="userSpaceOnUse" gradientTransform="translate(163.414 164.746) rotate(33.6901) scale(25.716)">
<stop stop-color="#FF5C28"/>
<stop offset="1" stop-color="#FF5C28" stop-opacity="0"/>
</radialGradient>
<linearGradient id="paint3_linear_238_1830" x1="229.09" y1="89.8784" x2="229.09" y2="154.243" gradientUnits="userSpaceOnUse">
<stop stop-color="#FF2929"/>
<stop offset="1" stop-color="#D22626"/>
</linearGradient>
<radialGradient id="paint4_radial_238_1830" cx="0" cy="0" r="1" gradientUnits="userSpaceOnUse" gradientTransform="translate(215.658 104.693) rotate(69.1801) scale(18.1715 15.522)">
<stop stop-color="#FFD6D6"/>
<stop offset="1" stop-color="#FFDADA" stop-opacity="0"/>
</radialGradient>
<radialGradient id="paint5_radial_238_1830" cx="0" cy="0" r="1" gradientUnits="userSpaceOnUse" gradientTransform="translate(241.231 104.062) rotate(68.748) scale(21.6406 18.7592)">
<stop offset="0.0178721" stop-color="#FFD6D6"/>
<stop offset="1" stop-color="#FFDADA" stop-opacity="0"/>
</radialGradient>
<linearGradient id="paint6_linear_238_1830" x1="162.644" y1="89.8784" x2="162.644" y2="154.243" gradientUnits="userSpaceOnUse">
<stop stop-color="#FF2929"/>
<stop offset="1" stop-color="#D22626"/>
</linearGradient>
<radialGradient id="paint7_radial_238_1830" cx="0" cy="0" r="1" gradientUnits="userSpaceOnUse" gradientTransform="translate(149.171 104.693) rotate(69.1219) scale(18.1785 15.5635)">
<stop stop-color="#FFD6D6"/>
<stop offset="1" stop-color="#FFDADA" stop-opacity="0"/>
</radialGradient>
<radialGradient id="paint8_radial_238_1830" cx="0" cy="0" r="1" gradientUnits="userSpaceOnUse" gradientTransform="translate(174.823 104.062) rotate(68.6888) scale(21.6493 18.8091)">
<stop offset="0.0178721" stop-color="#FFD6D6"/>
<stop offset="1" stop-color="#FFDADA" stop-opacity="0"/>
</radialGradient>
<radialGradient id="paint9_radial_238_1830" cx="0" cy="0" r="1" gradientUnits="userSpaceOnUse" gradientTransform="translate(193.958 167.507) rotate(90) scale(30.3465 95.8484)">
<stop/>
<stop offset="1" stop-opacity="0"/>
</radialGradient>
<radialGradient id="paint10_radial_238_1830" cx="0" cy="0" r="1" gradientUnits="userSpaceOnUse" gradientTransform="translate(194.509 165.855) rotate(90) scale(4.25757 19.1591)">
<stop stop-color="white"/>
<stop offset="1" stop-color="white"/>
</radialGradient>
</defs>
</svg>
