<svg width="24" height="24" viewBox="0 0 24 24" fill="none" xmlns="http://www.w3.org/2000/svg">
<g clip-path="url(#clip0_640_1688)">
<path d="M21.75 21.0001H2.25001C1.0093 21.0001 0 19.9908 0 18.75V15C0 14.5855 0.335439 14.25 0.750005 14.25C1.99072 14.25 3.00002 13.2407 3.00002 12C3.00002 10.7593 1.99072 9.74999 0.750005 9.74999C0.335439 9.75004 0 9.4146 0 9.00004V5.25001C0 4.0093 1.0093 3 2.25001 3H21.75C22.9908 3 24 4.0093 24 5.25001V9.00004C24 9.4146 23.6646 9.75004 23.25 9.75004C22.0093 9.75004 21 10.7593 21 12.0001C21 13.2408 22.0093 14.2501 23.25 14.2501C23.6646 14.2501 24 14.5855 24 15.0001V18.7501C24 19.9908 22.9908 21.0001 21.75 21.0001ZM1.50001 15.6746V18.75C1.50001 19.1639 1.83621 19.5001 2.25001 19.5001H21.75C22.1638 19.5001 22.5 19.1639 22.5 18.75V15.6746C20.7906 15.326 19.5 13.8113 19.5 12C19.5 10.1887 20.7905 8.67409 22.5 8.32542V5.25001C22.5 4.83621 22.1638 4.50001 21.75 4.50001H2.25001C1.83621 4.50001 1.50001 4.83621 1.50001 5.25001V8.32547C3.20947 8.67409 4.50003 10.1887 4.50003 12.0001C4.50003 13.8114 3.20947 15.326 1.50001 15.6746Z" fill="#9D9FA0"/>
<path d="M9.04834 17.7266L13.5467 5.73081L14.9512 6.25749L10.4528 18.2532L9.04834 17.7266Z" fill="#9D9FA0"/>
<path d="M8.45216 12.2525C7.21145 12.2525 6.20215 11.2432 6.20215 10.0025C6.20215 8.76174 7.21145 7.75244 8.45216 7.75244C9.69288 7.75244 10.7022 8.76174 10.7022 10.0025C10.7022 11.2432 9.69288 12.2525 8.45216 12.2525ZM8.45216 9.25245C8.03835 9.25245 7.70216 9.58865 7.70216 10.0025C7.70216 10.4163 8.03835 10.7525 8.45216 10.7525C8.86597 10.7525 9.20217 10.4163 9.20217 10.0025C9.20217 9.58865 8.86597 9.25245 8.45216 9.25245Z" fill="#9D9FA0"/>
<path d="M16.2046 16.9038C14.9639 16.9038 13.9546 15.8945 13.9546 14.6538C13.9546 13.4131 14.9639 12.4038 16.2046 12.4038C17.4453 12.4038 18.4546 13.4131 18.4546 14.6538C18.4546 15.8945 17.4453 16.9038 16.2046 16.9038ZM16.2046 13.9038C15.7908 13.9038 15.4546 14.24 15.4546 14.6538C15.4546 15.0676 15.7908 15.4038 16.2046 15.4038C16.6184 15.4038 16.9546 15.0676 16.9546 14.6538C16.9546 14.24 16.6184 13.9038 16.2046 13.9038Z" fill="#9D9FA0"/>
</g>
<defs>
<clipPath id="clip0_640_1688">
<rect width="24" height="24" fill="white"/>
</clipPath>
</defs>
</svg>
